<svg fill="none" version="1.1" viewBox="0 0 48 48" xmlns="http://www.w3.org/2000/svg">
 <g stroke="#2D74FF" stroke-width="4">
  <circle transform="rotate(5.6246 32.951 30.998)" cx="32.951" cy="30.998" r="9"/>
  <circle transform="rotate(3.4748 14.026 14.939)" cx="14.026" cy="14.939" r="7"/>
  <path d="m33.833 22.041 0.49-4.976"/>
  <path d="m14.451 7.9514 0.2424-3.9926"/>
  <path d="m31.677 43.935 0.4901-4.9759"/>
  <path d="m13.299 26.917 0.2424-3.9926"/>
  <path d="m41.459 31.333 4.976 0.49"/>
  <path d="m20.953 16.361 3.9927 0.2424"/>
  <path d="m19.565 29.177 4.9759 0.4901"/>
  <path d="m1.9879 15.21 3.9926 0.2424"/>
  <path d="m39.57 25.108 3.865-3.172"/>
  <path d="m18.918 10.607 3.1888-2.8237"/>
  <path d="m22.564 39.065 3.865-3.172"/>
  <path d="m4.8875 23.031 3.1888-2.8236"/>
  <path d="m38.392 37.071 3.172 3.865"/>
  <path d="m18.297 20.828 2.8237 3.1888"/>
  <path d="m24.436 20.065 3.172 3.865"/>
  <path d="m5.8732 6.7978 2.8237 3.1888"/>
 </g>
</svg>
