<svg fill="none" version="1.1" viewBox="0 0 48 48" xmlns="http://www.w3.org/2000/svg">
 <path d="m23.727 39c-4.4609-3.7715-10.366-7.6727-13.952-8.8084-0.44841-0.142-0.77577-0.5453-0.77577-1.0156v-15.54m14.727 25.364v-21.418m0 21.418c7.0168-4.0282 11.944-7.7565 14.471-8.7738 0.4515-0.1818 0.8018-0.6001 0.8018-1.0869v-16.067m-15.273 25.927c-7.5925-2.4775-14.087-1.4136-17.781-1.0725-0.53081 0.0491-0.99017-0.3439-1.0454-0.8741l-2.2927-22.01c-0.05917-0.568 0.36857-1.0701 0.93876-1.102l5.4526-0.305m14.727 25.364c6.7915-2.3346 14.059-1.4532 18.396-1.4793 0.5023-3e-3 0.9086-0.395 0.9512-0.8955l1.8463-21.695c0.0446-0.5238-0.3241-0.9927-0.8437-1.073l-5.0771-0.7847m-15.273 4.5091c2.2498-2.146 7.3331-8.4796 14.215-9.4732 0.5702-0.08234 1.0577 0.37793 1.0577 0.95408v4.0101m-15.273 4.5091c-2.0849-2.1544-6.1621-7.9115-13.659-8.9105-0.57426-0.07653-1.0679 0.38427-1.0679 0.96362v4.0015" stroke="#2D74FF" stroke-width="4"/>
</svg>
