<svg fill="none" version="1.1" viewBox="0 0 48 48" xmlns="http://www.w3.org/2000/svg">
 <g stroke="#2C76FF" stroke-width="4">
  <circle cx="34.5" cy="15.5" r="4.5"/>
  <circle cx="12.5" cy="15.5" r="4.5"/>
  <path d="m30.533 25-3.1003 1.8063c-1.2141 0.7074-2.0745 1.8929-2.3706 3.2664l-0.5403 2.5058c-0.2686 1.2457 0.6808 2.4215 1.9551 2.4215h15.912c1.3163 0 2.2736-1.2495 1.9311-2.5205l-0.705-2.6155c-0.3367-1.2493-1.1446-2.3195-2.2538-2.9855l-3.1286-1.8785s-1.8242 1.0417-3.9242 1.0417-3.7758-1.0417-3.7758-1.0417z"/>
  <path d="m8.5333 25-3.1003 1.8063c-1.214 0.7074-2.0744 1.8929-2.3706 3.2664l-0.54028 2.5058c-0.26859 1.2457 0.68074 2.4215 1.9551 2.4215h15.912c1.3163 0 2.2736-1.2495 1.9311-2.5205l-0.705-2.6155c-0.3367-1.2493-1.1446-2.3195-2.2538-2.9855l-3.1286-1.8785s-1.8242 1.0417-3.9242 1.0417-3.7758-1.0417-3.7758-1.0417z"/>
 </g>
 <path d="m31 22c6-4 2.5-13.5 0.5-14l-7.5 4-1 28h18.5l-6-16.5-4.5-1.5z" fill="#fff"/>
 <path d="m16.5 22c-6-4-2.5-14-0.5-14l7.5 4 1 28h-18.5l4.5-17 6-1z" fill="#fff"/>
 <circle cx="23.5" cy="14.5" r="5.5" stroke="#2C76FF" stroke-width="4"/>
 <path d="m18.778 25-4.0625 2.3858c-1.2088 0.71-2.0641 1.8948-2.3573 3.2656l-0.8407 3.9303c-0.2663 1.2448 0.6828 2.4183 1.9558 2.4183h19.922c1.3146 0 2.2717-1.2466 1.9321-2.5166l-1.08-4.0394c-0.3336-1.2474-1.1367-2.3174-2.2414-2.986l-4.0613-2.458s-2.1717 1.25-4.6717 1.25-4.4949-1.25-4.4949-1.25z" stroke="#2C76FF" stroke-width="4"/>
</svg>
