<svg width="535" height="453" viewBox="0 0 535 453" fill="none" xmlns="http://www.w3.org/2000/svg">
<g filter="url(#filter0_f_203_1812)">
<ellipse cx="175.999" cy="124.134" rx="175.999" ry="124.134" transform="matrix(-0.948747 0.316035 -0.31569 -0.948862 473.334 288.574)" fill="url(#paint0_linear_203_1812)" fill-opacity="0.7"/>
</g>
<g filter="url(#filter1_f_203_1812)">
<path d="M173.489 326.623H380.517L428 366.962H132.178L173.489 326.623Z" fill="url(#paint1_linear_203_1812)" fill-opacity="0.8"/>
</g>
<path d="M378.959 300.172H172.523L125.006 341.887H425.588L378.959 300.172Z" fill="url(#paint2_linear_203_1812)"/>
<rect width="188.2" height="127.083" transform="matrix(-1 0 0 1 369.985 180.365)" fill="url(#paint3_linear_203_1812)"/>
<path d="M373.624 292.411H178.419L134.245 331.215H416.972L373.624 292.411Z" fill="url(#paint4_linear_203_1812)"/>
<path d="M369.986 290.957L182.029 290.957L149.288 320.545H401.999L369.986 290.957Z" fill="url(#paint5_linear_203_1812)"/>
<path d="M401.999 320.545L149.288 320.545V327.82H401.999V320.545Z" fill="url(#paint6_linear_203_1812)"/>
<path d="M417.036 331.215L134.251 331.215V338.491H417.036V331.215Z" fill="url(#paint7_linear_203_1812)"/>
<path d="M391.328 175.514H160.202L184.454 182.547H367.076L391.328 175.514Z" fill="url(#paint8_linear_203_1812)"/>
<path d="M398.559 161.448H151.703L174.076 167.673L372.05 168.801L398.559 161.448Z" fill="url(#paint9_linear_203_1812)"/>
<rect width="230.884" height="5.82061" transform="matrix(-1 0 0 1 391.086 169.694)" fill="#D9D9D9"/>
<rect width="230.884" height="5.82061" transform="matrix(-1 0 0 1 391.086 169.694)" fill="url(#paint10_linear_203_1812)"/>
<rect width="213.907" height="5.82061" transform="matrix(-1 0 0 1 382.354 163.873)" fill="#D9D9D9"/>
<rect width="213.907" height="5.82061" transform="matrix(-1 0 0 1 382.354 163.873)" fill="url(#paint11_linear_203_1812)"/>
<path d="M425.281 341.887L125.035 341.887V350.618H425.281V341.887Z" fill="url(#paint12_linear_203_1812)"/>
<rect width="25.7077" height="116.412" transform="matrix(-1 0 0 1 361.257 189.096)" fill="url(#paint13_linear_203_1812)"/>
<rect width="3.88041" height="116.412" transform="matrix(-1 0 0 1 354.951 189.096)" fill="url(#paint14_linear_203_1812)"/>
<rect width="2.9103" height="116.412" transform="matrix(-1 0 0 1 357.861 189.096)" fill="url(#paint15_linear_203_1812)"/>
<rect width="1.9402" height="116.412" transform="matrix(-1 0 0 1 359.802 189.096)" fill="url(#paint16_linear_203_1812)"/>
<rect width="3.88041" height="116.412" transform="matrix(-1 0 0 1 347.19 189.096)" fill="url(#paint17_linear_203_1812)"/>
<rect width="3.39536" height="116.412" transform="matrix(-1 0 0 1 343.31 189.096)" fill="url(#paint18_linear_203_1812)"/>
<rect width="2.42525" height="116.412" transform="matrix(-1 0 0 1 339.915 189.096)" fill="url(#paint19_linear_203_1812)"/>
<rect width="3.88041" height="116.412" transform="matrix(-1 0 0 1 351.071 189.096)" fill="url(#paint20_linear_203_1812)"/>
<path d="M365.136 305.993L329.485 305.993L333.123 311.814H369.502L365.136 305.993Z" fill="white"/>
<rect width="38.319" height="6.30566" transform="matrix(-1 0 0 1 369.502 176.97)" fill="#E6E6E6"/>
<path d="M331.182 176.97L329.242 177.455V184.245L331.182 183.275V176.97Z" fill="#C6C6C6"/>
<path d="M369.502 183.275H331.183L329.243 184.245H367.562L369.502 183.275Z" fill="#AAAAAA"/>
<path d="M361.256 301.457C361.256 301.457 362.711 303.81 348.883 303.81C335.056 303.81 335.548 301.457 335.548 301.457C335.548 301.457 331.183 301.388 331.183 305.745C331.183 310.102 340.877 310.344 348.883 310.344C356.89 310.344 366.349 310.608 366.349 305.993C366.349 302.355 361.256 301.457 361.256 301.457Z" fill="url(#paint21_radial_203_1812)"/>
<rect width="35.4087" height="5.82061" rx="2.9103" transform="matrix(-1 0 0 1 366.107 183.275)" fill="url(#paint22_radial_203_1812)"/>
<rect width="36.3788" height="5.33556" transform="matrix(-1 0 0 1 369.502 311.814)" fill="#EBEBEB"/>
<path d="M333.123 311.814L329.485 305.993V311.329L333.123 317.149V311.814Z" fill="#F5F4F4"/>
<rect width="25.7077" height="116.412" transform="matrix(-1 0 0 1 215.499 189.096)" fill="url(#paint23_linear_203_1812)"/>
<rect width="3.88041" height="116.412" transform="matrix(-1 0 0 1 209.194 189.096)" fill="url(#paint24_linear_203_1812)"/>
<rect width="2.9103" height="116.412" transform="matrix(-1 0 0 1 212.104 189.096)" fill="url(#paint25_linear_203_1812)"/>
<rect width="1.9402" height="116.412" transform="matrix(-1 0 0 1 214.044 189.096)" fill="url(#paint26_linear_203_1812)"/>
<rect width="3.88041" height="116.412" transform="matrix(-1 0 0 1 201.433 189.096)" fill="url(#paint27_linear_203_1812)"/>
<rect width="3.39536" height="116.412" transform="matrix(-1 0 0 1 197.552 189.096)" fill="url(#paint28_linear_203_1812)"/>
<rect width="2.42525" height="116.412" transform="matrix(-1 0 0 1 194.157 189.096)" fill="url(#paint29_linear_203_1812)"/>
<rect width="3.88041" height="116.412" transform="matrix(-1 0 0 1 205.314 189.096)" fill="url(#paint30_linear_203_1812)"/>
<path d="M185.426 305.993L221.077 305.993L217.439 311.814H181.06L185.426 305.993Z" fill="white"/>
<rect x="182.757" y="176.969" width="38.319" height="6.30566" fill="#E6E6E6"/>
<path d="M221.078 176.969L223.018 177.454V184.245L221.078 183.275V176.969Z" fill="#C6C6C6"/>
<path d="M182.757 183.275H221.076L223.017 184.245H184.698L182.757 183.275Z" fill="#AAAAAA"/>
<path d="M215.499 301.457C215.499 301.457 216.954 303.81 203.127 303.81C189.299 303.81 189.791 301.457 189.791 301.457C189.791 301.457 185.426 301.388 185.426 305.745C185.426 310.102 195.12 310.344 203.127 310.344C211.134 310.344 220.592 310.608 220.592 305.993C220.592 302.355 215.499 301.457 215.499 301.457Z" fill="url(#paint31_radial_203_1812)"/>
<rect width="35.4087" height="5.82061" rx="2.9103" transform="matrix(-1 0 0 1 220.349 183.275)" fill="url(#paint32_radial_203_1812)"/>
<rect x="181.06" y="311.814" width="36.3788" height="5.33556" fill="#EBEBEB"/>
<path d="M217.44 311.814L221.078 305.993V311.329L217.44 317.149V311.814Z" fill="#F5F4F4"/>
<rect width="25.7077" height="116.412" transform="matrix(-1 0 0 1 312.023 189.096)" fill="url(#paint33_linear_203_1812)"/>
<rect width="3.88041" height="116.412" transform="matrix(-1 0 0 1 305.718 189.096)" fill="url(#paint34_linear_203_1812)"/>
<rect width="2.9103" height="116.412" transform="matrix(-1 0 0 1 308.628 189.096)" fill="url(#paint35_linear_203_1812)"/>
<rect width="1.9402" height="116.412" transform="matrix(-1 0 0 1 310.568 189.096)" fill="url(#paint36_linear_203_1812)"/>
<rect width="3.88041" height="116.412" transform="matrix(-1 0 0 1 297.957 189.096)" fill="url(#paint37_linear_203_1812)"/>
<rect width="3.39536" height="116.412" transform="matrix(-1 0 0 1 294.076 189.096)" fill="url(#paint38_linear_203_1812)"/>
<rect width="2.42525" height="116.412" transform="matrix(-1 0 0 1 290.681 189.096)" fill="url(#paint39_linear_203_1812)"/>
<rect width="3.88041" height="116.412" transform="matrix(-1 0 0 1 301.838 189.096)" fill="url(#paint40_linear_203_1812)"/>
<path d="M317.359 305.993L281.708 305.993L283.163 311.814H319.542L317.359 305.993Z" fill="white"/>
<rect width="38.319" height="6.30566" transform="matrix(-1 0 0 1 318.573 176.969)" fill="#E6E6E6"/>
<path d="M318.573 183.275H280.254L281.951 184.245H316.632L318.573 183.275Z" fill="#AAAAAA"/>
<path d="M312.023 301.457C312.023 301.457 313.478 303.81 299.651 303.81C285.824 303.81 286.316 301.457 286.316 301.457C286.316 301.457 281.95 301.388 281.95 305.745C281.95 310.102 291.644 310.344 299.651 310.344C307.658 310.344 317.116 310.608 317.116 305.993C317.116 302.355 312.023 301.457 312.023 301.457Z" fill="url(#paint41_radial_203_1812)"/>
<rect width="35.4087" height="5.82061" rx="2.9103" transform="matrix(-1 0 0 1 316.874 183.275)" fill="url(#paint42_radial_203_1812)"/>
<rect width="36.3788" height="5.33556" transform="matrix(-1 0 0 1 319.542 311.814)" fill="#EBEBEB"/>
<path d="M283.163 311.814L281.708 305.993V311.329L283.163 317.149V311.814Z" fill="#F5F4F4"/>
<rect width="25.7077" height="116.412" transform="matrix(-1 0 0 1 263.519 189.096)" fill="url(#paint43_linear_203_1812)"/>
<rect width="3.88041" height="116.412" transform="matrix(-1 0 0 1 257.213 189.096)" fill="url(#paint44_linear_203_1812)"/>
<rect width="2.9103" height="116.412" transform="matrix(-1 0 0 1 260.124 189.096)" fill="url(#paint45_linear_203_1812)"/>
<rect width="1.9402" height="116.412" transform="matrix(-1 0 0 1 262.064 189.096)" fill="url(#paint46_linear_203_1812)"/>
<rect width="3.88041" height="116.412" transform="matrix(-1 0 0 1 249.453 189.096)" fill="url(#paint47_linear_203_1812)"/>
<rect width="3.39536" height="116.412" transform="matrix(-1 0 0 1 245.572 189.096)" fill="url(#paint48_linear_203_1812)"/>
<rect width="2.42525" height="116.412" transform="matrix(-1 0 0 1 242.177 189.096)" fill="url(#paint49_linear_203_1812)"/>
<rect width="3.88041" height="116.412" transform="matrix(-1 0 0 1 253.333 189.096)" fill="url(#paint50_linear_203_1812)"/>
<path d="M233.192 305.993L268.843 305.993L267.388 311.814H231.009L233.192 305.993Z" fill="white"/>
<rect width="38.319" height="6.30566" transform="matrix(-1 0 0 1 270.066 176.969)" fill="#E6E6E6"/>
<path d="M270.066 183.275H231.747L233.445 184.245H268.126L270.066 183.275Z" fill="#AAAAAA"/>
<path d="M263.518 301.457C263.518 301.457 264.974 303.81 251.146 303.81C237.319 303.81 237.811 301.457 237.811 301.457C237.811 301.457 233.445 301.388 233.445 305.745C233.445 310.102 243.139 310.344 251.146 310.344C259.153 310.344 268.611 310.608 268.611 305.993C268.611 302.355 263.518 301.457 263.518 301.457Z" fill="url(#paint51_radial_203_1812)"/>
<rect width="35.4087" height="5.82061" rx="2.9103" transform="matrix(-1 0 0 1 268.369 183.275)" fill="url(#paint52_radial_203_1812)"/>
<rect x="231.009" y="311.814" width="36.3788" height="5.33556" fill="#EBEBEB"/>
<path d="M267.387 311.814L268.842 305.993V311.329L267.387 317.149V311.814Z" fill="#F5F4F4"/>
<path d="M398.747 142.608C398.747 137.564 395.748 133.004 391.117 131.005L280.617 83.3271C277.176 81.8423 273.275 81.8423 269.834 83.3271L159.04 131.132C154.587 133.053 151.703 137.439 151.703 142.289V161.469H398.747V142.608Z" fill="#64A0F6"/>
<g filter="url(#filter2_f_203_1812)">
<path d="M391.979 142.335C391.979 140.373 390.8 138.604 388.99 137.849L276.165 90.7771L164.846 137.01C162.125 138.14 160.352 140.796 160.352 143.743V153.948H391.979V142.335Z" fill="url(#paint53_linear_203_1812)"/>
</g>
<g filter="url(#filter3_if_203_1812)">
<path d="M388.594 146.029C388.594 143.689 387.195 141.575 385.04 140.661L276.353 94.5372L167.756 138.491C165.554 139.383 164.112 141.522 164.112 143.898L164.113 153.196H388.595L388.594 146.029Z" fill="#5694EE"/>
</g>
<g opacity="0.19">
<rect width="72.2642" height="69.9579" rx="16.9828" transform="matrix(-1 0 0 1 485.731 123.692)" fill="#C1DCFF"/>
<rect width="72.2642" height="69.9579" rx="16.9828" transform="matrix(-1 0 0 1 485.731 123.692)" fill="#5695EF"/>
</g>
<g opacity="0.19">
<rect width="46.1261" height="45.3573" rx="13.8378" transform="matrix(-1 0 0 1 391.126 55.225)" fill="#C1DCFF"/>
<rect width="46.1261" height="45.3573" rx="13.8378" transform="matrix(-1 0 0 1 391.126 55.225)" fill="#5695EF"/>
</g>
<g opacity="0.19">
<rect width="33.6296" height="32.9829" rx="9.70086" transform="matrix(-1 0 0 1 486.776 49.0007)" fill="#C1DCFF"/>
<rect width="33.6296" height="32.9829" rx="9.70086" transform="matrix(-1 0 0 1 486.776 49.0007)" fill="#5695EF"/>
</g>
<g opacity="0.19">
<rect width="21.1812" height="20.7738" rx="6.10995" transform="matrix(-1 0 0 1 366.181 170.374)" fill="#C1DCFF"/>
<rect width="21.1812" height="20.7738" rx="6.10995" transform="matrix(-1 0 0 1 366.181 170.374)" fill="#5695EF"/>
</g>
<rect x="363.358" y="78.1954" width="92.4618" height="89.9459" rx="16.9828" fill="#D9D9D9"/>
<rect x="363.358" y="78.1954" width="92.4618" height="89.9459" rx="16.9828" fill="url(#paint54_linear_203_1812)"/>
<circle cx="409.589" cy="123.168" r="30.5061" fill="white"/>
<path d="M394.807 121.281L405.699 132.289L424.37 113.419" stroke="black" stroke-width="6.91891"/>
<path d="M145 303.501L166.5 284.001V223.501M134.5 138.501C134 133.501 136.3 122.101 149.5 116.501C162.7 110.901 224 83.5007 253 70.5007M427.5 321.501L435.791 331.507C439.804 336.35 442 342.443 442 348.733V358.501C442 361.262 439.762 363.501 437 363.501H408" stroke="black" stroke-width="4" stroke-linecap="round"/>
<defs>
<filter id="filter0_f_203_1812" x="0.255905" y="0.762863" width="533.822" height="451.293" filterUnits="userSpaceOnUse" color-interpolation-filters="sRGB">
<feFlood flood-opacity="0" result="BackgroundImageFix"/>
<feBlend mode="normal" in="SourceGraphic" in2="BackgroundImageFix" result="shape"/>
<feGaussianBlur stdDeviation="47.6783" result="effect1_foregroundBlur_203_1812"/>
</filter>
<filter id="filter1_f_203_1812" x="115.653" y="310.098" width="328.873" height="73.3899" filterUnits="userSpaceOnUse" color-interpolation-filters="sRGB">
<feFlood flood-opacity="0" result="BackgroundImageFix"/>
<feBlend mode="normal" in="SourceGraphic" in2="BackgroundImageFix" result="shape"/>
<feGaussianBlur stdDeviation="8.26262" result="effect1_foregroundBlur_203_1812"/>
</filter>
<filter id="filter2_f_203_1812" x="155.977" y="86.4028" width="240.376" height="71.9197" filterUnits="userSpaceOnUse" color-interpolation-filters="sRGB">
<feFlood flood-opacity="0" result="BackgroundImageFix"/>
<feBlend mode="normal" in="SourceGraphic" in2="BackgroundImageFix" result="shape"/>
<feGaussianBlur stdDeviation="2.18717" result="effect1_foregroundBlur_203_1812"/>
</filter>
<filter id="filter3_if_203_1812" x="161.196" y="92.5931" width="229.343" height="62.5471" filterUnits="userSpaceOnUse" color-interpolation-filters="sRGB">
<feFlood flood-opacity="0" result="BackgroundImageFix"/>
<feBlend mode="normal" in="SourceGraphic" in2="BackgroundImageFix" result="shape"/>
<feColorMatrix in="SourceAlpha" type="matrix" values="0 0 0 0 0 0 0 0 0 0 0 0 0 0 0 0 0 0 127 0" result="hardAlpha"/>
<feOffset dx="-2.91622" dy="1.94415"/>
<feGaussianBlur stdDeviation="2.6732"/>
<feComposite in2="hardAlpha" operator="arithmetic" k2="-1" k3="1"/>
<feColorMatrix type="matrix" values="0 0 0 0 0.12549 0 0 0 0 0.25098 0 0 0 0 0.741176 0 0 0 1 0"/>
<feBlend mode="normal" in2="shape" result="effect1_innerShadow_203_1812"/>
<feGaussianBlur stdDeviation="0.972074" result="effect2_foregroundBlur_203_1812"/>
</filter>
<linearGradient id="paint0_linear_203_1812" x1="308.211" y1="195.403" x2="-276.285" y2="-52.7877" gradientUnits="userSpaceOnUse">
<stop stop-color="#FFBBFF"/>
<stop offset="1" stop-color="#0090E3"/>
</linearGradient>
<linearGradient id="paint1_linear_203_1812" x1="280.089" y1="326.623" x2="280.089" y2="366.962" gradientUnits="userSpaceOnUse">
<stop/>
<stop offset="1" stop-opacity="0"/>
</linearGradient>
<linearGradient id="paint2_linear_203_1812" x1="524.511" y1="225.302" x2="192.709" y2="387.192" gradientUnits="userSpaceOnUse">
<stop stop-color="#687EDF"/>
<stop offset="1" stop-color="#CADFFF"/>
</linearGradient>
<linearGradient id="paint3_linear_203_1812" x1="52.143" y1="1.31649e-06" x2="146.485" y2="102.588" gradientUnits="userSpaceOnUse">
<stop stop-color="#142676"/>
<stop offset="1" stop-color="#4781DC"/>
</linearGradient>
<linearGradient id="paint4_linear_203_1812" x1="580.416" y1="267.05" x2="197.065" y2="373.172" gradientUnits="userSpaceOnUse">
<stop stop-color="#687EE3"/>
<stop offset="1" stop-color="#B3D1FF"/>
</linearGradient>
<linearGradient id="paint5_linear_203_1812" x1="314.933" y1="218.926" x2="234.366" y2="319.574" gradientUnits="userSpaceOnUse">
<stop stop-color="#142676"/>
<stop offset="1" stop-color="#73AAFF"/>
</linearGradient>
<linearGradient id="paint6_linear_203_1812" x1="86.7162" y1="226.687" x2="273.967" y2="262.475" gradientUnits="userSpaceOnUse">
<stop stop-color="#425DD3"/>
<stop offset="1" stop-color="#4781DC"/>
</linearGradient>
<linearGradient id="paint7_linear_203_1812" x1="64.2332" y1="237.358" x2="271.921" y2="281.776" gradientUnits="userSpaceOnUse">
<stop stop-color="#425DD3"/>
<stop offset="1" stop-color="#4781DC"/>
</linearGradient>
<linearGradient id="paint8_linear_203_1812" x1="272.006" y1="185.943" x2="272.006" y2="170.421" gradientUnits="userSpaceOnUse">
<stop stop-color="#152E7B"/>
<stop offset="1" stop-color="#4881DD"/>
</linearGradient>
<linearGradient id="paint9_linear_203_1812" x1="301.923" y1="165.229" x2="293.838" y2="84.5728" gradientUnits="userSpaceOnUse">
<stop stop-color="#113B8C"/>
<stop offset="1" stop-color="#3170CA"/>
</linearGradient>
<linearGradient id="paint10_linear_203_1812" x1="288.051" y1="-75.0859" x2="118.789" y2="-38.1409" gradientUnits="userSpaceOnUse">
<stop stop-color="#425DD3"/>
<stop offset="1" stop-color="#4781DC"/>
</linearGradient>
<linearGradient id="paint11_linear_203_1812" x1="115.127" y1="-4.36546" x2="115.085" y2="7.2663" gradientUnits="userSpaceOnUse">
<stop stop-color="#2A45A5"/>
<stop offset="1" stop-color="#4371CA"/>
</linearGradient>
<linearGradient id="paint12_linear_203_1812" x1="50.6937" y1="229.258" x2="273.321" y2="271.385" gradientUnits="userSpaceOnUse">
<stop stop-color="#425DD3"/>
<stop offset="1" stop-color="#4781DC"/>
</linearGradient>
<linearGradient id="paint13_linear_203_1812" x1="0.970102" y1="66.9121" x2="24.9801" y2="66.9121" gradientUnits="userSpaceOnUse">
<stop stop-color="#BCBAB8"/>
<stop offset="1" stop-color="#E8E5E8"/>
</linearGradient>
<linearGradient id="paint14_linear_203_1812" x1="0" y1="66.9121" x2="3.77058" y2="66.9121" gradientUnits="userSpaceOnUse">
<stop stop-color="#C5C3C2"/>
<stop offset="0.501063" stop-color="#EDEDED"/>
<stop offset="1" stop-color="#CECBCB"/>
</linearGradient>
<linearGradient id="paint15_linear_203_1812" x1="0" y1="66.9121" x2="2.82794" y2="66.9121" gradientUnits="userSpaceOnUse">
<stop stop-color="#C5C3C2"/>
<stop offset="0.501063" stop-color="#EDEDED"/>
<stop offset="1" stop-color="#CECBCB"/>
</linearGradient>
<linearGradient id="paint16_linear_203_1812" x1="0" y1="66.9121" x2="1.88529" y2="66.9121" gradientUnits="userSpaceOnUse">
<stop stop-color="#C5C3C2"/>
<stop offset="0.501063" stop-color="#EDEDED"/>
<stop offset="1" stop-color="#CECBCB"/>
</linearGradient>
<linearGradient id="paint17_linear_203_1812" x1="0" y1="66.9121" x2="3.77058" y2="66.9121" gradientUnits="userSpaceOnUse">
<stop stop-color="#C5C3C2"/>
<stop offset="0.501063" stop-color="#EDEDED"/>
<stop offset="1" stop-color="#CECBCB"/>
</linearGradient>
<linearGradient id="paint18_linear_203_1812" x1="0" y1="66.9121" x2="3.29926" y2="66.9121" gradientUnits="userSpaceOnUse">
<stop stop-color="#C5C3C2"/>
<stop offset="0.501063" stop-color="#EDEDED"/>
<stop offset="1" stop-color="#CECBCB"/>
</linearGradient>
<linearGradient id="paint19_linear_203_1812" x1="0" y1="66.9121" x2="2.35661" y2="66.9121" gradientUnits="userSpaceOnUse">
<stop stop-color="#C5C3C2"/>
<stop offset="0.501063" stop-color="#EDEDED"/>
<stop offset="1" stop-color="#E3E1E1"/>
</linearGradient>
<linearGradient id="paint20_linear_203_1812" x1="0" y1="66.9121" x2="3.77058" y2="66.9121" gradientUnits="userSpaceOnUse">
<stop stop-color="#C5C3C2"/>
<stop offset="0.501063" stop-color="#EDEDED"/>
<stop offset="1" stop-color="#CECBCB"/>
</linearGradient>
<radialGradient id="paint21_radial_203_1812" cx="0" cy="0" r="1" gradientUnits="userSpaceOnUse" gradientTransform="translate(348.644 303.082) rotate(89.9989) scale(7.27624 27.1571)">
<stop stop-color="#D9D9D9"/>
<stop offset="0.49015" stop-color="#ECECEC"/>
<stop offset="1" stop-color="#BCBCBC"/>
</radialGradient>
<radialGradient id="paint22_radial_203_1812" cx="0" cy="0" r="1" gradientUnits="userSpaceOnUse" gradientTransform="translate(17.7044 1.69768) rotate(-90) scale(2.9103 17.7044)">
<stop stop-color="white"/>
<stop offset="1" stop-color="#C0C0C0"/>
</radialGradient>
<linearGradient id="paint23_linear_203_1812" x1="0.970102" y1="66.9121" x2="24.9801" y2="66.9121" gradientUnits="userSpaceOnUse">
<stop stop-color="#BCBAB8"/>
<stop offset="1" stop-color="#E8E5E8"/>
</linearGradient>
<linearGradient id="paint24_linear_203_1812" x1="0" y1="66.9121" x2="3.77058" y2="66.9121" gradientUnits="userSpaceOnUse">
<stop stop-color="#C5C3C2"/>
<stop offset="0.501063" stop-color="#EDEDED"/>
<stop offset="1" stop-color="#CECBCB"/>
</linearGradient>
<linearGradient id="paint25_linear_203_1812" x1="0" y1="66.9121" x2="2.82794" y2="66.9121" gradientUnits="userSpaceOnUse">
<stop stop-color="#C5C3C2"/>
<stop offset="0.501063" stop-color="#EDEDED"/>
<stop offset="1" stop-color="#CECBCB"/>
</linearGradient>
<linearGradient id="paint26_linear_203_1812" x1="0" y1="66.9121" x2="1.88529" y2="66.9121" gradientUnits="userSpaceOnUse">
<stop stop-color="#C5C3C2"/>
<stop offset="0.501063" stop-color="#EDEDED"/>
<stop offset="1" stop-color="#CECBCB"/>
</linearGradient>
<linearGradient id="paint27_linear_203_1812" x1="0" y1="66.9121" x2="3.77058" y2="66.9121" gradientUnits="userSpaceOnUse">
<stop stop-color="#C5C3C2"/>
<stop offset="0.501063" stop-color="#EDEDED"/>
<stop offset="1" stop-color="#CECBCB"/>
</linearGradient>
<linearGradient id="paint28_linear_203_1812" x1="0" y1="66.9121" x2="3.29926" y2="66.9121" gradientUnits="userSpaceOnUse">
<stop stop-color="#C5C3C2"/>
<stop offset="0.501063" stop-color="#EDEDED"/>
<stop offset="1" stop-color="#CECBCB"/>
</linearGradient>
<linearGradient id="paint29_linear_203_1812" x1="0" y1="66.9121" x2="2.35661" y2="66.9121" gradientUnits="userSpaceOnUse">
<stop stop-color="#C5C3C2"/>
<stop offset="0.501063" stop-color="#EDEDED"/>
<stop offset="1" stop-color="#E3E1E1"/>
</linearGradient>
<linearGradient id="paint30_linear_203_1812" x1="0" y1="66.9121" x2="3.77058" y2="66.9121" gradientUnits="userSpaceOnUse">
<stop stop-color="#C5C3C2"/>
<stop offset="0.501063" stop-color="#EDEDED"/>
<stop offset="1" stop-color="#CECBCB"/>
</linearGradient>
<radialGradient id="paint31_radial_203_1812" cx="0" cy="0" r="1" gradientUnits="userSpaceOnUse" gradientTransform="translate(202.888 303.082) rotate(89.9989) scale(7.27624 27.1571)">
<stop stop-color="#D9D9D9"/>
<stop offset="0.49015" stop-color="#ECECEC"/>
<stop offset="1" stop-color="#BCBCBC"/>
</radialGradient>
<radialGradient id="paint32_radial_203_1812" cx="0" cy="0" r="1" gradientUnits="userSpaceOnUse" gradientTransform="translate(17.7044 1.69768) rotate(-90) scale(2.9103 17.7044)">
<stop stop-color="white"/>
<stop offset="1" stop-color="#C0C0C0"/>
</radialGradient>
<linearGradient id="paint33_linear_203_1812" x1="0.970102" y1="66.9121" x2="24.9801" y2="66.9121" gradientUnits="userSpaceOnUse">
<stop stop-color="#BCBAB8"/>
<stop offset="1" stop-color="#E8E5E8"/>
</linearGradient>
<linearGradient id="paint34_linear_203_1812" x1="0" y1="66.9121" x2="3.77058" y2="66.9121" gradientUnits="userSpaceOnUse">
<stop stop-color="#C5C3C2"/>
<stop offset="0.501063" stop-color="#EDEDED"/>
<stop offset="1" stop-color="#CECBCB"/>
</linearGradient>
<linearGradient id="paint35_linear_203_1812" x1="0" y1="66.9121" x2="2.82794" y2="66.9121" gradientUnits="userSpaceOnUse">
<stop stop-color="#C5C3C2"/>
<stop offset="0.501063" stop-color="#EDEDED"/>
<stop offset="1" stop-color="#CECBCB"/>
</linearGradient>
<linearGradient id="paint36_linear_203_1812" x1="0" y1="66.9121" x2="1.88529" y2="66.9121" gradientUnits="userSpaceOnUse">
<stop stop-color="#C5C3C2"/>
<stop offset="0.501063" stop-color="#EDEDED"/>
<stop offset="1" stop-color="#CECBCB"/>
</linearGradient>
<linearGradient id="paint37_linear_203_1812" x1="0" y1="66.9121" x2="3.77058" y2="66.9121" gradientUnits="userSpaceOnUse">
<stop stop-color="#C5C3C2"/>
<stop offset="0.501063" stop-color="#EDEDED"/>
<stop offset="1" stop-color="#CECBCB"/>
</linearGradient>
<linearGradient id="paint38_linear_203_1812" x1="0" y1="66.9121" x2="3.29926" y2="66.9121" gradientUnits="userSpaceOnUse">
<stop stop-color="#C5C3C2"/>
<stop offset="0.501063" stop-color="#EDEDED"/>
<stop offset="1" stop-color="#CECBCB"/>
</linearGradient>
<linearGradient id="paint39_linear_203_1812" x1="0" y1="66.9121" x2="2.35661" y2="66.9121" gradientUnits="userSpaceOnUse">
<stop stop-color="#C5C3C2"/>
<stop offset="0.501063" stop-color="#EDEDED"/>
<stop offset="1" stop-color="#E3E1E1"/>
</linearGradient>
<linearGradient id="paint40_linear_203_1812" x1="0" y1="66.9121" x2="3.77058" y2="66.9121" gradientUnits="userSpaceOnUse">
<stop stop-color="#C5C3C2"/>
<stop offset="0.501063" stop-color="#EDEDED"/>
<stop offset="1" stop-color="#CECBCB"/>
</linearGradient>
<radialGradient id="paint41_radial_203_1812" cx="0" cy="0" r="1" gradientUnits="userSpaceOnUse" gradientTransform="translate(299.412 303.082) rotate(89.9989) scale(7.27624 27.1571)">
<stop stop-color="#D9D9D9"/>
<stop offset="0.49015" stop-color="#ECECEC"/>
<stop offset="1" stop-color="#BCBCBC"/>
</radialGradient>
<radialGradient id="paint42_radial_203_1812" cx="0" cy="0" r="1" gradientUnits="userSpaceOnUse" gradientTransform="translate(17.7044 1.69768) rotate(-90) scale(2.9103 17.7044)">
<stop stop-color="white"/>
<stop offset="1" stop-color="#C0C0C0"/>
</radialGradient>
<linearGradient id="paint43_linear_203_1812" x1="0.970102" y1="66.9121" x2="24.9801" y2="66.9121" gradientUnits="userSpaceOnUse">
<stop stop-color="#BCBAB8"/>
<stop offset="1" stop-color="#E8E5E8"/>
</linearGradient>
<linearGradient id="paint44_linear_203_1812" x1="0" y1="66.9121" x2="3.77058" y2="66.9121" gradientUnits="userSpaceOnUse">
<stop stop-color="#C5C3C2"/>
<stop offset="0.501063" stop-color="#EDEDED"/>
<stop offset="1" stop-color="#CECBCB"/>
</linearGradient>
<linearGradient id="paint45_linear_203_1812" x1="0" y1="66.9121" x2="2.82794" y2="66.9121" gradientUnits="userSpaceOnUse">
<stop stop-color="#C5C3C2"/>
<stop offset="0.501063" stop-color="#EDEDED"/>
<stop offset="1" stop-color="#CECBCB"/>
</linearGradient>
<linearGradient id="paint46_linear_203_1812" x1="0" y1="66.9121" x2="1.88529" y2="66.9121" gradientUnits="userSpaceOnUse">
<stop stop-color="#C5C3C2"/>
<stop offset="0.501063" stop-color="#EDEDED"/>
<stop offset="1" stop-color="#CECBCB"/>
</linearGradient>
<linearGradient id="paint47_linear_203_1812" x1="0" y1="66.9121" x2="3.77058" y2="66.9121" gradientUnits="userSpaceOnUse">
<stop stop-color="#C5C3C2"/>
<stop offset="0.501063" stop-color="#EDEDED"/>
<stop offset="1" stop-color="#CECBCB"/>
</linearGradient>
<linearGradient id="paint48_linear_203_1812" x1="0" y1="66.9121" x2="3.29926" y2="66.9121" gradientUnits="userSpaceOnUse">
<stop stop-color="#C5C3C2"/>
<stop offset="0.501063" stop-color="#EDEDED"/>
<stop offset="1" stop-color="#CECBCB"/>
</linearGradient>
<linearGradient id="paint49_linear_203_1812" x1="0" y1="66.9121" x2="2.35661" y2="66.9121" gradientUnits="userSpaceOnUse">
<stop stop-color="#C5C3C2"/>
<stop offset="0.501063" stop-color="#EDEDED"/>
<stop offset="1" stop-color="#E3E1E1"/>
</linearGradient>
<linearGradient id="paint50_linear_203_1812" x1="0" y1="66.9121" x2="3.77058" y2="66.9121" gradientUnits="userSpaceOnUse">
<stop stop-color="#C5C3C2"/>
<stop offset="0.501063" stop-color="#EDEDED"/>
<stop offset="1" stop-color="#CECBCB"/>
</linearGradient>
<radialGradient id="paint51_radial_203_1812" cx="0" cy="0" r="1" gradientUnits="userSpaceOnUse" gradientTransform="translate(250.907 303.082) rotate(89.9989) scale(7.27624 27.1571)">
<stop stop-color="#D9D9D9"/>
<stop offset="0.49015" stop-color="#ECECEC"/>
<stop offset="1" stop-color="#BCBCBC"/>
</radialGradient>
<radialGradient id="paint52_radial_203_1812" cx="0" cy="0" r="1" gradientUnits="userSpaceOnUse" gradientTransform="translate(17.7044 1.69768) rotate(-90) scale(2.9103 17.7044)">
<stop stop-color="white"/>
<stop offset="1" stop-color="#C0C0C0"/>
</radialGradient>
<linearGradient id="paint53_linear_203_1812" x1="324.08" y1="121.048" x2="156.995" y2="156.681" gradientUnits="userSpaceOnUse">
<stop stop-color="#3564DD"/>
<stop offset="1" stop-color="#1F3FBD" stop-opacity="0.58"/>
</linearGradient>
<linearGradient id="paint54_linear_203_1812" x1="390.174" y1="83.3352" x2="315.924" y2="116.741" gradientUnits="userSpaceOnUse">
<stop stop-color="#1C83FF"/>
<stop offset="1" stop-color="#8E1CFF"/>
</linearGradient>
</defs>
</svg>
