<svg width="243" height="64" viewBox="0 0 243 64" fill="none" xmlns="http://www.w3.org/2000/svg">
<rect width="59.7541" height="59.7541" rx="15.9344" fill="#0074FF"/>
<path d="M34.9622 36.816C34.0707 36.2689 33.7891 35.1015 34.3455 34.2142C34.8951 33.327 36.0682 33.0468 36.9597 33.6005C37.3753 33.8606 37.8379 34.0608 38.3205 34.1942C38.7897 34.3276 39.2857 34.401 39.7952 34.401C41.2766 34.401 42.6172 33.8006 43.5892 32.84C44.5612 31.8726 45.1578 30.5384 45.1578 29.0641C45.1578 27.5898 44.5545 26.2555 43.5892 25.2882C42.6172 24.3209 41.2766 23.7272 39.7952 23.7272C38.7026 23.7272 37.6636 24.0541 36.7922 24.6411C35.9207 25.2282 35.2236 26.0621 34.8147 27.0628C34.808 27.0761 34.8013 27.0961 34.7946 27.1095L34.3455 28.3036C34.3254 28.377 34.2986 28.4504 34.265 28.5171L30.4643 38.6038C30.3102 39.0108 30.0219 39.3643 29.613 39.5912C28.7014 40.1048 27.5417 39.7846 27.0256 38.8707L23.922 33.407L20.6978 38.884C20.49 39.2376 20.1682 39.5244 19.7593 39.6845C18.7806 40.0715 17.6813 39.5912 17.2925 38.6238L10.9245 22.6998C10.5357 21.7258 11.0116 20.6318 11.9903 20.2449C12.969 19.8579 14.0683 20.3383 14.4571 21.3056L19.3839 33.6272L22.3199 28.6438C22.8495 27.7432 24.0158 27.4363 24.9208 27.97C25.2492 28.1635 25.4972 28.437 25.6581 28.7506L28.3394 33.467L30.7056 27.1762C30.7392 27.0427 30.7727 26.9093 30.7861 26.7826C30.8062 26.6558 30.8129 26.5091 30.8129 26.3423C30.8129 25.7819 30.6654 25.2415 30.404 24.7812C30.1359 24.3076 29.7538 23.9073 29.2779 23.6205C28.3729 23.0868 28.0847 21.9193 28.6209 21.0254C29.1639 20.1248 30.3303 19.8379 31.2285 20.3716C32.1267 20.9053 32.8708 21.6258 33.4338 22.4597C33.8159 22.0994 34.2248 21.7659 34.6538 21.479C36.1419 20.4783 37.9183 19.918 39.7885 19.918C42.3223 19.918 44.6215 20.9387 46.2772 22.5931C47.9396 24.2475 48.9652 26.5291 48.9652 29.0508C48.9652 31.5724 47.9396 33.8606 46.2772 35.5084C44.6148 37.1629 42.3223 38.1835 39.7885 38.1835C38.9372 38.1835 38.0926 38.0635 37.2748 37.83C36.4771 37.6098 35.6995 37.2696 34.9622 36.816ZM19.9001 22.8466C19.4308 21.9126 19.8129 20.7785 20.7514 20.3116C21.6898 19.8446 22.8294 20.2248 23.2986 21.1588L24.5722 23.6938C25.0414 24.6278 24.6593 25.7619 23.7209 26.2355C22.7824 26.7025 21.6429 26.3223 21.1737 25.3883L19.9001 22.8466Z" fill="white"/>
<path d="M94.3217 15.4682L97.6652 3.35292H103.054L96.7998 23.0205H91.9616L88.3428 11.1019L84.7239 23.0205H79.8857L73.6314 3.35292H79.0203L82.3638 15.4288L85.9433 3.35292H90.7422L94.3217 15.4682ZM121.384 20.5817C119.391 22.5747 116.926 23.5712 113.989 23.5712C111.052 23.5712 108.587 22.5747 106.594 20.5817C104.601 18.5887 103.605 16.1237 103.605 13.1867C103.605 10.2759 104.601 7.82401 106.594 5.83103C108.614 3.81183 111.079 2.80222 113.989 2.80222C116.9 2.80222 119.365 3.81183 121.384 5.83103C123.404 7.85024 124.413 10.3021 124.413 13.1867C124.413 16.0975 123.404 18.5625 121.384 20.5817ZM110.174 17.0809C111.197 18.1036 112.468 18.615 113.989 18.615C115.51 18.615 116.782 18.1036 117.805 17.0809C118.828 16.0582 119.339 14.7601 119.339 13.1867C119.339 11.6133 118.828 10.3152 117.805 9.29253C116.782 8.26981 115.51 7.75846 113.989 7.75846C112.468 7.75846 111.197 8.26981 110.174 9.29253C109.177 10.3415 108.679 11.6395 108.679 13.1867C108.679 14.7339 109.177 16.032 110.174 17.0809ZM144.346 20.5817C142.353 22.5747 139.888 23.5712 136.951 23.5712C134.014 23.5712 131.549 22.5747 129.556 20.5817C127.563 18.5887 126.567 16.1237 126.567 13.1867C126.567 10.2759 127.563 7.82401 129.556 5.83103C131.575 3.81183 134.04 2.80222 136.951 2.80222C139.862 2.80222 142.327 3.81183 144.346 5.83103C146.365 7.85024 147.375 10.3021 147.375 13.1867C147.375 16.0975 146.365 18.5625 144.346 20.5817ZM133.136 17.0809C134.158 18.1036 135.43 18.615 136.951 18.615C138.472 18.615 139.744 18.1036 140.767 17.0809C141.789 16.0582 142.301 14.7601 142.301 13.1867C142.301 11.6133 141.789 10.3152 140.767 9.29253C139.744 8.26981 138.472 7.75846 136.951 7.75846C135.43 7.75846 134.158 8.26981 133.136 9.29253C132.139 10.3415 131.641 11.6395 131.641 13.1867C131.641 14.7339 132.139 16.032 133.136 17.0809ZM161.998 2.80222C164.646 2.80222 166.902 3.81183 168.764 5.83103C170.652 7.85024 171.596 10.3021 171.596 13.1867C171.596 16.1237 170.652 18.5887 168.764 20.5817C166.928 22.5747 164.673 23.5712 161.998 23.5712C159.244 23.5712 157.12 22.614 155.626 20.6997V30.8875H150.551V3.35292H155.626V5.67369C157.12 3.75938 159.244 2.80222 161.998 2.80222ZM157.16 17.1989C158.182 18.2216 159.48 18.733 161.054 18.733C162.627 18.733 163.925 18.2216 164.948 17.1989C165.997 16.15 166.521 14.8126 166.521 13.1867C166.521 11.5609 165.997 10.2366 164.948 9.21386C163.925 8.16492 162.627 7.64045 161.054 7.64045C159.48 7.64045 158.182 8.16492 157.16 9.21386C156.137 10.2366 155.626 11.5609 155.626 13.1867C155.626 14.8126 156.137 16.15 157.16 17.1989ZM186.227 2.80222C188.876 2.80222 191.131 3.81183 192.993 5.83103C194.881 7.85024 195.825 10.3021 195.825 13.1867C195.825 16.1237 194.881 18.5887 192.993 20.5817C191.157 22.5747 188.902 23.5712 186.227 23.5712C183.474 23.5712 181.35 22.614 179.855 20.6997V30.8875H174.781V3.35292H179.855V5.67369C181.35 3.75938 183.474 2.80222 186.227 2.80222ZM181.389 17.1989C182.412 18.2216 183.71 18.733 185.283 18.733C186.857 18.733 188.155 18.2216 189.178 17.1989C190.227 16.15 190.751 14.8126 190.751 13.1867C190.751 11.5609 190.227 10.2366 189.178 9.21386C188.155 8.16492 186.857 7.64045 185.283 7.64045C183.71 7.64045 182.412 8.16492 181.389 9.21386C180.367 10.2366 179.855 11.5609 179.855 13.1867C179.855 14.8126 180.367 16.15 181.389 17.1989ZM213.958 5.67369V3.35292H219.032V23.0205H213.958V20.6997C212.437 22.614 210.3 23.5712 207.546 23.5712C204.924 23.5712 202.669 22.5747 200.781 20.5817C198.919 18.5625 197.988 16.0975 197.988 13.1867C197.988 10.3021 198.919 7.85024 200.781 5.83103C202.669 3.81183 204.924 2.80222 207.546 2.80222C210.3 2.80222 212.437 3.75938 213.958 5.67369ZM204.596 17.1989C205.619 18.2216 206.917 18.733 208.49 18.733C210.064 18.733 211.362 18.2216 212.384 17.1989C213.433 16.15 213.958 14.8126 213.958 13.1867C213.958 11.5609 213.433 10.2366 212.384 9.21386C211.362 8.16492 210.064 7.64045 208.49 7.64045C206.917 7.64045 205.619 8.16492 204.596 9.21386C203.573 10.2366 203.062 11.5609 203.062 13.1867C203.062 14.8126 203.573 16.15 204.596 17.1989ZM231.697 16.5695L236.063 3.35292H241.492L234.333 23.0205C233.31 25.8526 231.946 27.8981 230.242 29.1568C228.563 30.4417 226.465 31.0187 223.948 30.8875V26.1673C225.285 26.1935 226.361 25.9051 227.174 25.3019C227.986 24.6988 228.629 23.7285 229.101 22.3911L221.037 3.35292H226.584L231.697 16.5695Z" fill="black"/>
<path d="M81.9588 41.918H89.5993V55.8606H86.5877V44.818H81.9588V55.8606H78.9472V44.818H76.8279V41.918H78.9472V41.6391C78.9472 37.8653 81.0479 35.9784 85.2492 35.9784C86.2717 35.9784 87.3034 36.0992 88.3445 36.3409V39.1016C87.3034 38.9528 86.2717 38.8785 85.2492 38.8785C84.1152 38.8785 83.2787 39.0923 82.7396 39.5198C82.219 39.9288 81.9588 40.6352 81.9588 41.6391V41.918ZM100.418 41.5555C102.035 41.5555 103.327 42.076 104.294 43.117C105.279 44.1395 105.772 45.5338 105.772 47.2998V55.8606H102.76V47.6066C102.76 46.5655 102.481 45.7661 101.924 45.2084C101.366 44.6507 100.604 44.3719 99.6371 44.3719C98.5403 44.3719 97.6759 44.7158 97.0438 45.4036C96.4118 46.0729 96.0957 47.0674 96.0957 48.3873V55.8606H93.0841V41.918H96.0957V43.7026C97.0252 42.2712 98.466 41.5555 100.418 41.5555ZM116.795 41.918V44.818H113.337V51.5105C113.337 52.0868 113.467 52.5051 113.727 52.7653C113.988 53.007 114.369 53.1464 114.871 53.1836C115.391 53.2022 116.032 53.1929 116.795 53.1557V55.8606C114.489 56.1394 112.835 55.9443 111.831 55.275C110.827 54.5872 110.325 53.3323 110.325 51.5105V44.818H107.76V41.918H110.325V38.9064L113.337 38.014V41.918H116.795ZM132.423 50.172H121.324C121.548 51.2131 122.049 52.0217 122.83 52.598C123.63 53.1743 124.615 53.4625 125.786 53.4625C127.366 53.4625 128.565 52.8862 129.383 51.7336L131.865 53.1836C130.508 55.2099 128.472 56.2231 125.758 56.2231C123.509 56.2231 121.678 55.5353 120.265 54.1596C118.871 52.7653 118.173 51.0086 118.173 48.8893C118.173 46.8258 118.861 45.0876 120.237 43.6747C121.594 42.2619 123.36 41.5555 125.535 41.5555C127.561 41.5555 129.235 42.2712 130.554 43.7026C131.874 45.1341 132.534 46.8723 132.534 48.9172C132.534 49.289 132.497 49.7073 132.423 50.172ZM121.297 47.7181H129.495C129.29 46.6213 128.826 45.7754 128.101 45.1805C127.394 44.5857 126.53 44.2882 125.507 44.2882C124.392 44.2882 123.462 44.595 122.719 45.2084C121.975 45.8219 121.501 46.6585 121.297 47.7181ZM141.684 56.2231C139.583 56.2231 137.826 55.5167 136.413 54.1038C135.019 52.6724 134.322 50.9342 134.322 48.8893C134.322 46.8072 135.019 45.069 136.413 43.6747C137.826 42.2619 139.583 41.5555 141.684 41.5555C143.041 41.5555 144.277 41.8808 145.392 42.5314C146.508 43.1821 147.344 44.0558 147.902 45.1527L145.309 46.6585C144.993 45.9892 144.509 45.4687 143.859 45.0969C143.227 44.7065 142.492 44.5113 141.656 44.5113C140.429 44.5113 139.397 44.9296 138.56 45.7661C137.742 46.6213 137.333 47.6623 137.333 48.8893C137.333 50.1162 137.742 51.1573 138.56 52.0124C139.397 52.849 140.429 53.2673 141.656 53.2673C142.474 53.2673 143.208 53.0814 143.859 52.7096C144.528 52.3192 145.03 51.7893 145.364 51.1201L147.958 52.598C147.363 53.7134 146.498 54.5965 145.364 55.2471C144.249 55.8978 143.022 56.2231 141.684 56.2231ZM157.468 41.5555C159.086 41.5555 160.378 42.076 161.344 43.117C162.33 44.1395 162.822 45.5338 162.822 47.2998V55.8606H159.811V47.6066C159.811 46.5655 159.532 45.7661 158.974 45.2084C158.416 44.6507 157.654 44.3719 156.688 44.3719C155.591 44.3719 154.726 44.7158 154.094 45.4036C153.462 46.0729 153.146 47.0674 153.146 48.3873V55.8606H150.135V36.3409H153.146V43.7026C154.076 42.2712 155.516 41.5555 157.468 41.5555Z" fill="#666975"/>
</svg>
