<svg width="139" height="37" viewBox="0 0 139 37" fill="none" xmlns="http://www.w3.org/2000/svg">
<rect width="34" height="34" rx="9.06667" fill="#0074FF"/>
<path d="M19.8932 20.9483C19.3859 20.637 19.2257 19.9728 19.5423 19.4679C19.8551 18.9631 20.5225 18.8036 21.0298 19.1187C21.2663 19.2667 21.5295 19.3806 21.8041 19.4565C22.0711 19.5324 22.3533 19.5742 22.6432 19.5742C23.4861 19.5742 24.2489 19.2326 24.802 18.686C25.355 18.1356 25.6945 17.3764 25.6945 16.5375C25.6945 15.6986 25.3512 14.9394 24.802 14.389C24.2489 13.8386 23.4861 13.5008 22.6432 13.5008C22.0215 13.5008 21.4303 13.6868 20.9345 14.0208C20.4386 14.3549 20.042 14.8294 19.8093 15.3987C19.8055 15.4063 19.8017 15.4177 19.7979 15.4253L19.5423 16.1048C19.5309 16.1465 19.5156 16.1883 19.4965 16.2262L17.3339 21.9656C17.2462 22.1971 17.0822 22.3983 16.8495 22.5274C16.3308 22.8197 15.671 22.6375 15.3773 22.1174L13.6114 19.0086L11.7768 22.125C11.6585 22.3262 11.4755 22.4894 11.2428 22.5805C10.6859 22.8007 10.0604 22.5274 9.8392 21.977L6.21579 12.9163C5.99457 12.3621 6.26538 11.7395 6.82224 11.5194C7.3791 11.2992 8.00461 11.5725 8.22583 12.1229L11.0292 19.1339L12.6998 16.2984C13.0011 15.7859 13.6648 15.6113 14.1797 15.915C14.3666 16.0251 14.5077 16.1807 14.5992 16.3591L16.1249 19.0428L17.4712 15.4633C17.4903 15.3874 17.5094 15.3114 17.517 15.2393C17.5285 15.1672 17.5323 15.0837 17.5323 14.9888C17.5323 14.6699 17.4484 14.3625 17.2996 14.1006C17.147 13.8311 16.9296 13.6033 16.6588 13.4401C16.1439 13.1364 15.9799 12.4721 16.2851 11.9635C16.594 11.451 17.2577 11.2878 17.7687 11.5915C18.2798 11.8952 18.7032 12.3051 19.0236 12.7796C19.241 12.5746 19.4737 12.3848 19.7178 12.2216C20.5645 11.6522 21.5752 11.3334 22.6394 11.3334C24.0811 11.3334 25.3894 11.9141 26.3314 12.8555C27.2773 13.7969 27.8609 15.0951 27.8609 16.5299C27.8609 17.9648 27.2773 19.2667 26.3314 20.2043C25.3855 21.1457 24.0811 21.7265 22.6394 21.7265C22.155 21.7265 21.6744 21.6581 21.2091 21.5253C20.7552 21.4 20.3128 21.2064 19.8932 20.9483ZM11.3229 12.9998C11.0559 12.4683 11.2733 11.823 11.8073 11.5573C12.3413 11.2916 12.9897 11.508 13.2566 12.0394L13.9813 13.4818C14.2483 14.0133 14.0309 14.6586 13.4969 14.9281C12.963 15.1938 12.3146 14.9774 12.0476 14.446L11.3229 12.9998Z" fill="white"/>
<path d="M53.669 8.86941L55.5714 1.97586H58.6377L55.079 13.1667H52.3261L50.267 6.38504L48.2079 13.1667H45.4549L41.8962 1.97586H44.9625L46.865 8.84703L48.9017 1.97586H51.6322L53.669 8.86941ZM69.0676 11.779C67.9336 12.913 66.531 13.48 64.8598 13.48C63.1886 13.48 61.7861 12.913 60.6521 11.779C59.5181 10.645 58.9511 9.24244 58.9511 7.57127C58.9511 5.91503 59.5181 4.5199 60.6521 3.3859C61.801 2.23698 63.2036 1.66251 64.8598 1.66251C66.5161 1.66251 67.9186 2.23698 69.0676 3.3859C70.2165 4.53483 70.791 5.92995 70.791 7.57127C70.791 9.22751 70.2165 10.6301 69.0676 11.779ZM62.6888 9.78706C63.2707 10.369 63.9944 10.6599 64.8598 10.6599C65.7252 10.6599 66.4489 10.369 67.0308 9.78706C67.6128 9.20513 67.9037 8.46654 67.9037 7.57127C67.9037 6.676 67.6128 5.93741 67.0308 5.35549C66.4489 4.77356 65.7252 4.4826 64.8598 4.4826C63.9944 4.4826 63.2707 4.77356 62.6888 5.35549C62.1218 5.95233 61.8383 6.69093 61.8383 7.57127C61.8383 8.45162 62.1218 9.19021 62.6888 9.78706ZM82.1329 11.779C80.9989 12.913 79.5963 13.48 77.9251 13.48C76.2539 13.48 74.8514 12.913 73.7174 11.779C72.5833 10.645 72.0163 9.24244 72.0163 7.57127C72.0163 5.91503 72.5833 4.5199 73.7174 3.3859C74.8663 2.23698 76.2689 1.66251 77.9251 1.66251C79.5813 1.66251 80.9839 2.23698 82.1329 3.3859C83.2818 4.53483 83.8562 5.92995 83.8562 7.57127C83.8562 9.22751 83.2818 10.6301 82.1329 11.779ZM75.7541 9.78706C76.336 10.369 77.0597 10.6599 77.9251 10.6599C78.7905 10.6599 79.5142 10.369 80.0961 9.78706C80.678 9.20513 80.969 8.46654 80.969 7.57127C80.969 6.676 80.678 5.93741 80.0961 5.35549C79.5142 4.77356 78.7905 4.4826 77.9251 4.4826C77.0597 4.4826 76.336 4.77356 75.7541 5.35549C75.1871 5.95233 74.9036 6.69093 74.9036 7.57127C74.9036 8.45162 75.1871 9.19021 75.7541 9.78706ZM92.1766 1.66251C93.6837 1.66251 94.9669 2.23698 96.0263 3.3859C97.1006 4.53483 97.6378 5.92995 97.6378 7.57127C97.6378 9.24244 97.1006 10.645 96.0263 11.779C94.9818 12.913 93.6986 13.48 92.1766 13.48C90.6099 13.48 89.4013 12.9354 88.5508 11.8462V17.643H85.6636V1.97586H88.5508V3.29637C89.4013 2.20713 90.6099 1.66251 92.1766 1.66251ZM89.4237 9.8542C90.0056 10.4361 90.7442 10.7271 91.6395 10.7271C92.5347 10.7271 93.2733 10.4361 93.8553 9.8542C94.4521 9.25736 94.7505 8.49638 94.7505 7.57127C94.7505 6.64616 94.4521 5.89265 93.8553 5.31072C93.2733 4.71388 92.5347 4.41546 91.6395 4.41546C90.7442 4.41546 90.0056 4.71388 89.4237 5.31072C88.8418 5.89265 88.5508 6.64616 88.5508 7.57127C88.5508 8.49638 88.8418 9.25736 89.4237 9.8542ZM105.963 1.66251C107.47 1.66251 108.753 2.23698 109.813 3.3859C110.887 4.53483 111.424 5.92995 111.424 7.57127C111.424 9.24244 110.887 10.645 109.813 11.779C108.768 12.913 107.485 13.48 105.963 13.48C104.396 13.48 103.188 12.9354 102.337 11.8462V17.643H99.4501V1.97586H102.337V3.29637C103.188 2.20713 104.396 1.66251 105.963 1.66251ZM103.21 9.8542C103.792 10.4361 104.531 10.7271 105.426 10.7271C106.321 10.7271 107.06 10.4361 107.642 9.8542C108.239 9.25736 108.537 8.49638 108.537 7.57127C108.537 6.64616 108.239 5.89265 107.642 5.31072C107.06 4.71388 106.321 4.41546 105.426 4.41546C104.531 4.41546 103.792 4.71388 103.21 5.31072C102.628 5.89265 102.337 6.64616 102.337 7.57127C102.337 8.49638 102.628 9.25736 103.21 9.8542ZM121.742 3.29637V1.97586H124.629V13.1667H121.742V11.8462C120.876 12.9354 119.66 13.48 118.094 13.48C116.601 13.48 115.318 12.913 114.244 11.779C113.185 10.6301 112.655 9.22751 112.655 7.57127C112.655 5.92995 113.185 4.53483 114.244 3.3859C115.318 2.23698 116.601 1.66251 118.094 1.66251C119.66 1.66251 120.876 2.20713 121.742 3.29637ZM116.415 9.8542C116.997 10.4361 117.735 10.7271 118.631 10.7271C119.526 10.7271 120.265 10.4361 120.846 9.8542C121.443 9.25736 121.742 8.49638 121.742 7.57127C121.742 6.64616 121.443 5.89265 120.846 5.31072C120.265 4.71388 119.526 4.41546 118.631 4.41546C117.735 4.41546 116.997 4.71388 116.415 5.31072C115.833 5.89265 115.542 6.64616 115.542 7.57127C115.542 8.49638 115.833 9.25736 116.415 9.8542ZM131.835 9.49609L134.32 1.97586H137.408L133.335 13.1667C132.753 14.7782 131.977 15.942 131.007 16.6582C130.052 17.3894 128.859 17.7176 127.426 17.643V14.9572C128.187 14.9721 128.799 14.808 129.261 14.4648C129.724 14.1216 130.09 13.5696 130.358 12.8086L125.77 1.97586H128.926L131.835 9.49609Z" fill="white"/>
<path d="M46.6344 24.3333H50.9818V32.2667H49.2682V25.9835H46.6344V32.2667H44.9208V25.9835H43.7149V24.3333H44.9208V24.1747C44.9208 22.0274 46.1161 20.9537 48.5066 20.9537C49.0884 20.9537 49.6755 21.0225 50.2678 21.16V22.7308C49.6755 22.6462 49.0884 22.6039 48.5066 22.6039C47.8614 22.6039 47.3854 22.7255 47.0786 22.9688C46.7825 23.2015 46.6344 23.6035 46.6344 24.1747V24.3333ZM57.1376 24.1271C58.0579 24.1271 58.793 24.4232 59.3431 25.0156C59.9037 25.5974 60.184 26.3907 60.184 27.3956V32.2667H58.4704V27.5701C58.4704 26.9778 58.3117 26.5229 57.9944 26.2056C57.6771 25.8883 57.2434 25.7296 56.6933 25.7296C56.0693 25.7296 55.5774 25.9253 55.2177 26.3167C54.8581 26.6975 54.6783 27.2634 54.6783 28.0144V32.2667H52.9647V24.3333H54.6783V25.3488C55.2072 24.5343 56.0269 24.1271 57.1376 24.1271ZM66.4559 24.3333V25.9835H64.4885V29.7915C64.4885 30.1194 64.5625 30.3574 64.7106 30.5055C64.8587 30.643 65.0755 30.7223 65.3611 30.7435C65.6573 30.754 66.0222 30.7488 66.4559 30.7276V32.2667C65.1443 32.4253 64.2029 32.3143 63.6317 31.9335C63.0605 31.5421 62.7749 30.8281 62.7749 29.7915V25.9835H61.3151V24.3333H62.7749V22.6197L64.4885 22.112V24.3333H66.4559ZM75.3483 29.0299H69.0334C69.1603 29.6222 69.4459 30.0824 69.8902 30.4103C70.345 30.7382 70.9057 30.9021 71.5721 30.9021C72.4712 30.9021 73.1534 30.5742 73.6189 29.9184L75.031 30.7435C74.2588 31.8964 73.1006 32.4729 71.5562 32.4729C70.2763 32.4729 69.2344 32.0816 68.4305 31.2988C67.6371 30.5055 67.2405 29.5059 67.2405 28.3C67.2405 27.1259 67.6318 26.1368 68.4146 25.3329C69.1868 24.529 70.1917 24.1271 71.4293 24.1271C72.5822 24.1271 73.5342 24.5343 74.2853 25.3488C75.0363 26.1633 75.4118 27.1523 75.4118 28.3159C75.4118 28.5274 75.3906 28.7654 75.3483 29.0299ZM69.0175 27.6336H73.6823C73.566 27.0095 73.3015 26.5282 72.889 26.1897C72.487 25.8512 71.9952 25.682 71.4134 25.682C70.7787 25.682 70.2498 25.8565 69.8267 26.2056C69.4036 26.5547 69.1339 27.0307 69.0175 27.6336ZM80.6177 32.4729C79.4224 32.4729 78.4228 32.071 77.6189 31.2671C76.8255 30.4526 76.4289 29.4636 76.4289 28.3C76.4289 27.1153 76.8255 26.1263 77.6189 25.3329C78.4228 24.529 79.4224 24.1271 80.6177 24.1271C81.3899 24.1271 82.0933 24.3122 82.7279 24.6824C83.3626 25.0526 83.8386 25.5498 84.1559 26.1739L82.6803 27.0307C82.5005 26.6499 82.2255 26.3537 81.8553 26.1421C81.4956 25.92 81.0778 25.8089 80.6018 25.8089C79.9037 25.8089 79.3166 26.0469 78.8406 26.5229C78.3752 27.0095 78.1425 27.6019 78.1425 28.3C78.1425 28.9981 78.3752 29.5905 78.8406 30.0771C79.3166 30.5531 79.9037 30.7911 80.6018 30.7911C81.0672 30.7911 81.4851 30.6853 81.8553 30.4737C82.2361 30.2516 82.5217 29.9501 82.7121 29.5693L84.1877 30.4103C83.8492 31.0449 83.3573 31.5474 82.7121 31.9176C82.0774 32.2878 81.3793 32.4729 80.6177 32.4729ZM89.5992 24.1271C90.5195 24.1271 91.2546 24.4232 91.8047 25.0156C92.3653 25.5974 92.6456 26.3907 92.6456 27.3956V32.2667H90.932V27.5701C90.932 26.9778 90.7733 26.5229 90.456 26.2056C90.1387 25.8883 89.705 25.7296 89.1549 25.7296C88.5308 25.7296 88.039 25.9253 87.6793 26.3167C87.3197 26.6975 87.1399 27.2634 87.1399 28.0144V32.2667H85.4263V21.16H87.1399V25.3488C87.6688 24.5343 88.4885 24.1271 89.5992 24.1271Z" fill="white"/>
</svg>
