<svg width="180" height="180" viewBox="0 0 180 180" fill="none" xmlns="http://www.w3.org/2000/svg">
<rect y="0.000732422" width="180" height="180" rx="24" fill="white"/>
<path fill-rule="evenodd" clip-rule="evenodd" d="M61.5909 87.9951H57.402C57.028 87.2668 55.6741 85.8103 53.2505 85.8103C50.221 85.8103 48.5379 87.8264 48.5379 90.4166C48.5379 93.0068 50.3332 94.9429 53.2505 94.9429C55.5843 94.9429 56.9906 93.3281 57.402 92.5206H61.5909C61.005 94.5777 58.5166 98.6918 53.2505 98.6918C46.6679 98.6918 44.2368 93.9228 44.2368 90.4166C44.2368 86.9104 46.9671 81.9361 53.2505 81.9361C58.2772 81.9361 60.9053 85.9754 61.5909 87.9951ZM63.9506 81.9361V98.3737H68.1773V93.622H71.4148L74.6523 98.3737H79.5536L75.6865 93.1723V92.5206C76.6008 92.299 78.4294 91.0837 78.4294 87.9951C78.4294 84.1343 76.0912 81.9361 71.9994 81.9361H63.9506ZM81.7593 82.1341H94.5069V85.8103H85.7948V88.8708H93.3378V91.8503H85.7948V94.9429H94.5069V98.3737H81.7593V82.1341ZM97.0469 82.1341V98.3737H103.905C106.988 98.3917 113.153 96.888 113.153 90.7288C113.153 83.0298 106.206 81.9361 103.905 81.9361C102.065 81.9361 98.5661 82.0681 97.0469 82.1341ZM119.569 82.1341H115.277V98.3737H119.569V82.1341ZM121.781 82.1341H135.763V85.8103H130.631V98.3737H126.781V85.8103H121.781V82.1341ZM68.1295 89.9994V85.5741H71.8105C72.1413 85.5741 74.2092 85.5741 74.2092 87.7249C74.2092 89.4455 72.61 89.9582 71.8105 89.9994H68.1295ZM101.215 94.8383V85.5741H104.441C105.062 85.5741 108.825 86.2774 108.825 90.2063C108.825 93.3495 105.93 94.8383 104.441 94.8383H101.215Z" fill="#DB0627"/>
<path fill-rule="evenodd" clip-rule="evenodd" d="M67.3891 69.9046C67.3891 73.038 69.0773 75.2661 70.067 75.9885H64.3474C62.7972 74.5374 62.3471 71.328 62.3159 69.9046C62.3159 65.0699 66.4415 58.9244 74.724 58.9244C83.0064 58.9244 86.6007 65.988 86.6007 70.0823C86.6007 73.3578 85.4755 75.3845 84.913 75.9885H79.3809C79.3809 75.9885 81.8623 73.4349 81.8623 69.9046C81.8623 67.4454 79.0058 63.4251 74.724 63.4251C70.4421 63.4251 67.3891 65.988 67.3891 69.9046ZM48.4521 59.749H44.2368V75.9885H48.4521V69.9046H55.2546V75.9885H59.4222V59.749H55.2546V66.4555H48.4521V59.749ZM74.441 74.7282C72.1945 74.7282 70.9304 72.8908 70.4377 71.926H78.4442C78.1401 72.8908 76.6874 74.7282 74.441 74.7282ZM93.6981 75.9885H89.3658V59.749H92.7161L98.7235 68.0314L104.442 59.749H107.677V75.9885H103.576V68.0314L99.8788 73.2879H97.395L93.6981 68.0314V75.9885ZM123.952 59.749H111.204V75.9885H123.952V72.5577H115.24V69.4651H122.783V66.4856H115.24V63.4251H123.952V59.749Z" fill="#DB0627"/>
<path fill-rule="evenodd" clip-rule="evenodd" d="M44.2368 104.639V121.077H52.7323C54.7677 121.036 58.8384 120.131 58.8384 116.839C58.8384 114.326 56.8915 112.93 55.9181 112.547C56.7145 112.222 58.3074 111.104 58.3074 109.228C58.3074 106.883 56.1836 104.639 52.0686 104.639H44.2368ZM58.8384 121.077H63.3074L64.679 118.255H71.6701L72.8205 121.077H77.2895L70.0329 104.837H66.1392L58.8384 121.077ZM82.8204 121.077H78.6169V104.837H82.0682L89.9884 113.653V104.837H94.2804V121.077H91.0504L82.8204 112.281V121.077ZM97.7759 104.837V121.077H101.847V117.901L104.457 115.157L109.059 121.077H114.236L107.289 112.281L113.793 104.837H108.705L101.847 112.281V104.837H97.7759ZM48.0945 107.906V111.669H51.734C52.5749 111.628 54.2568 111.181 54.2568 109.725C54.2568 107.906 52.1476 107.906 51.734 107.906H48.0945ZM48.0945 117.914V114.316H52.5611C53.3193 114.316 54.8358 114.68 54.8358 116.136C54.8358 117.592 53.3193 117.928 52.5611 117.914H48.0945ZM65.6402 114.812H70.6003L68.042 109.434L65.6402 114.812Z" fill="#DB0627"/>
</svg>
