<svg width="180" height="180" viewBox="0 0 180 180" fill="none" xmlns="http://www.w3.org/2000/svg">
<rect y="0.000732422" width="180" height="180" rx="24" fill="white"/>
<path d="M111.501 64.8922C108.117 59.4261 95.689 58.4937 89.8977 58.7107C82.9359 58.7107 72.5242 59.1019 68.4899 64.8922C64.4557 70.6825 69.9869 84.4137 73.3705 89.6842C76.754 94.9548 84.9527 103.999 89.8977 103.999C94.8426 103.999 103.497 94.5644 106.49 89.6842C109.484 84.8041 115.73 71.7249 111.501 64.8922Z" fill="#E1056D"/>
<path d="M74.6979 76.2279L90.051 93.393L105.404 76.2279L106.176 75.2612C106.472 74.8906 106.618 74.4224 106.584 73.9493C106.556 73.55 106.402 73.1699 106.144 72.8638L104.516 70.9311C103.243 69.42 101.537 68.3362 99.6283 67.8263L97.1348 67.1603C95.7038 66.7781 94.229 66.5845 92.7478 66.5845H87.2197C85.7023 66.5845 84.1916 66.7877 82.7281 67.1887L80.6286 67.7638C78.6152 68.3154 76.8095 69.4494 75.4383 71.0235L74.21 72.4337C73.9697 72.7095 73.7949 73.036 73.6986 73.3888C73.493 74.1421 73.6622 74.9482 74.1535 75.5552L74.6979 76.2279Z" fill="white"/>
<path d="M84.2685 80.8586L88.7228 89.0554C83.8705 80.8007 78.8665 77.1298 76.9711 76.3262C77.6029 76.487 79.2077 76.8855 80.5724 77.1941C81.9371 77.5027 83.226 74.944 83.6999 73.6261C83.6683 73.8833 83.5482 74.9762 83.3208 76.5191C83.0933 78.062 86.6378 79.2192 88.4385 79.7014C84.2685 78.8335 83.8262 80.0229 84.2685 80.8586Z" fill="#E1046D"/>
<path d="M95.6397 80.8586L91.1854 89.0554C96.0377 80.8007 101.042 77.1298 102.937 76.3262C102.305 76.487 100.701 76.8855 99.3358 77.1941C97.9711 77.5027 96.6822 74.944 96.2083 73.6261C96.2399 73.8833 96.36 74.9762 96.5874 76.5191C96.8149 78.062 93.2704 79.2192 91.4697 79.7014C95.6397 78.8335 96.082 80.0229 95.6397 80.8586Z" fill="#E1046D"/>
<path d="M94.8807 71.7922H85.1191C86.288 72.0815 88.7015 72.7566 89.0048 73.1423C89.3081 73.528 89.763 75.8746 89.9525 76.9996C90.1421 75.9067 90.6159 73.6052 90.995 73.1423C91.3741 72.6794 93.7434 72.0494 94.8807 71.7922Z" fill="#E5026D"/>
<path d="M83.2327 71.4074L77.736 69.093C77.8623 69.318 78.134 69.9223 78.2098 70.5395C78.2857 71.1567 77.2305 72.9825 76.6935 73.8183C77.4201 72.9504 79.0249 71.176 79.6314 71.0217C80.238 70.8674 82.285 71.2146 83.2327 71.4074Z" fill="#E1046D"/>
<path d="M96.6902 71.4074L102.187 69.093C102.061 69.318 101.789 69.9223 101.713 70.5395C101.637 71.1567 102.692 72.9825 103.229 73.8183C102.503 72.9504 100.898 71.176 100.292 71.0217C99.685 70.8674 97.6379 71.2146 96.6902 71.4074Z" fill="#E1046D"/>
<path fill-rule="evenodd" clip-rule="evenodd" d="M28.2837 106.858H28.8775H36.8074C37.6405 106.858 37.8826 107.241 37.8994 107.432C37.9297 107.771 37.9993 108.56 38.0356 109.001C38.081 109.553 38.094 109.903 37.5817 109.903C37.3105 109.903 37.2029 109.656 37.0559 109.318C36.9251 109.018 36.7632 108.647 36.4274 108.314C35.7787 107.671 34.3901 107.683 33.4952 107.69C33.4059 107.691 33.3215 107.691 33.2433 107.691C32.5533 107.691 32.4044 108.141 32.4161 108.366V112.027C32.4161 112.859 32.9401 113.088 33.202 113.099C33.3733 113.109 33.9339 113.131 34.8065 113.131C35.8236 113.131 35.9144 112.221 35.9426 111.938C35.9447 111.918 35.9464 111.901 35.9481 111.888L35.9503 111.87C35.9759 111.669 36.0224 111.304 36.392 111.304C36.6965 111.304 36.7958 111.534 36.8074 111.65V115.357C36.8074 115.82 36.5532 115.936 36.4261 115.936C36.2683 115.936 36.0297 115.936 35.8871 115.121C35.7115 114.117 34.9618 114.119 33.8092 114.121L33.6388 114.121C32.6396 114.121 32.4074 114.893 32.4161 115.278V118.302C32.4161 119.709 32.4161 120.025 34.7958 120.025C37.2274 120.025 37.788 118.59 38.0025 118.041C38.0292 117.973 38.0506 117.918 38.0695 117.881L38.0925 117.837C38.2528 117.527 38.3868 117.268 38.7006 117.369C38.9636 117.453 38.9942 117.825 38.9767 118C38.8409 118.688 38.5507 120.148 38.4771 120.485C38.4035 120.821 38.1309 120.914 38.0038 120.919H28.4456C28.2484 120.927 27.854 120.869 27.854 120.564C27.854 120.259 28.2484 120.217 28.4456 120.235C29.0872 120.235 29.4667 119.122 29.5763 118.565V109.559C29.5763 107.955 29.0898 107.574 28.6428 107.574C28.1958 107.574 27.8407 107.495 27.8407 107.219C27.8407 106.998 28.136 106.886 28.2837 106.858ZM42.3698 111.304C41.7942 111.392 40.4513 111.512 39.8518 111.561C39.4136 111.598 39.2269 111.716 39.2523 111.888C39.2546 111.903 39.2563 111.919 39.2581 111.935L39.2581 111.935C39.2754 112.094 39.2938 112.262 39.8928 112.331C40.4205 112.392 40.513 112.774 40.4934 112.958V118.314C40.4934 120.692 42.4106 121.134 43.3492 121.134C44.1545 121.134 44.9318 120.714 45.3527 120.486L45.3527 120.486C45.4223 120.449 45.4822 120.416 45.5308 120.392C45.5952 120.36 45.6635 120.316 45.7347 120.271C46.042 120.075 46.4047 119.845 46.7548 120.329C47.0998 120.806 47.5497 120.925 47.7315 120.925H49.8941C50.5765 120.925 50.5663 120.215 49.8941 120.215C49.3563 120.215 49.215 119.469 49.2117 119.097V111.612C49.2117 111.26 48.8837 111.23 48.7198 111.26C48.3014 111.314 47.3632 111.433 46.9579 111.48C46.5527 111.527 46.515 111.798 46.5468 111.928V117.617L46.547 117.662C46.5493 118.116 46.555 119.254 44.9024 119.46C43.5341 119.63 43.1822 118.479 43.1773 117.881V111.84C43.1773 111.304 43.0892 111.194 42.3698 111.304ZM54.1448 111.26L51.1797 111.84C51.005 111.855 50.6556 111.958 50.6556 112.245C50.6556 112.485 50.978 112.558 51.2403 112.617C51.3693 112.647 51.4837 112.673 51.5383 112.713C51.5579 112.728 51.5789 112.742 51.6006 112.756C51.7622 112.86 51.9658 112.992 51.9658 113.831V119.637C51.9704 120.064 52.2223 120.919 53.1932 120.919H55.4412C55.7446 120.919 55.8484 120.727 55.8484 120.597C55.8484 120.466 55.6918 120.215 55.3961 120.215C55.1004 120.215 54.5872 119.953 54.5872 119.005V114.804C54.5872 114.352 54.8099 113.447 55.7005 113.447C56.3637 113.447 56.5794 113.669 56.752 113.847C56.8692 113.968 56.9665 114.068 57.1704 114.065C57.6749 114.056 58.6317 113.56 58.6317 112.586C58.6317 111.612 57.8054 111.151 57.1704 111.151C56.5355 111.151 55.8255 111.699 55.4412 112.021C55.3358 112.143 55.0791 112.388 54.8954 112.388C54.6657 112.388 54.5872 112.156 54.5872 111.708C54.5872 111.26 54.5122 111.188 54.1448 111.26ZM64.4797 114.013C64.4797 113.865 64.4453 113.516 64.4281 113.36L64.4152 113.294C64.2901 112.662 64.143 111.919 63.1711 111.919C61.914 111.919 61.6148 113.036 61.5229 113.744C61.4309 114.451 61.2187 114.6 60.7943 114.677C60.3699 114.755 59.7403 114.515 59.6059 114.013C59.4715 113.51 59.7049 111.006 63.3974 111.006C67.0308 111.006 67.0273 113.02 67.0263 113.617L67.0262 113.645V118.893C67.0262 119.532 67.3563 119.681 67.6283 119.804C67.796 119.88 67.9417 119.945 67.9741 120.11C68.059 120.542 67.4224 121.023 66.2057 121.023C65.4912 121.023 65.1232 120.708 64.8193 120.448C64.6056 120.266 64.4237 120.11 64.1755 120.11C63.9183 120.11 63.674 120.277 63.3944 120.468C63.0206 120.724 62.5837 121.023 61.9685 121.023C60.8933 121.023 59.2522 120.215 59.2522 118.483C59.2522 116.757 60.5605 116.244 60.9256 116.1L60.9287 116.099C61.2273 115.982 62.5682 115.424 63.3782 115.087L63.8006 114.911C64.4302 114.649 64.4797 114.196 64.4797 114.013ZM72.9345 111.919C72.4552 111.887 71.4803 112.074 71.4154 113.076C71.3496 114.091 72.5322 114.512 73.6927 114.925C73.9646 115.022 74.2353 115.118 74.4884 115.222C75.822 115.767 76.3322 116.764 76.3322 118.039C76.3322 119.315 74.9522 121.023 72.5866 121.023C70.221 121.023 69.444 120.289 69.3628 119.86C69.3006 119.531 69.2248 118.862 69.1719 118.395L69.1719 118.395C69.1558 118.252 69.1418 118.129 69.1309 118.039C69.0845 117.657 69.6991 117.41 69.9311 117.947C69.9477 117.985 69.9658 118.029 69.9859 118.078C70.245 118.708 70.8213 120.11 72.5866 120.11C74.4884 120.11 74.1753 117.854 73.0504 117.378C72.9669 117.343 72.8748 117.305 72.7758 117.265L72.7752 117.264L72.7743 117.264L72.7739 117.264L72.7738 117.264C71.5399 116.758 69.2469 115.817 69.2469 113.853C69.2469 111.731 71.4618 111.006 72.9345 111.006C74.4072 111.006 75.161 111.511 75.2537 111.638C75.3465 111.766 75.6132 112.902 75.6364 113.076C75.6596 113.25 75.6596 113.645 75.3697 113.645C75.0798 113.645 74.9754 113.563 74.7319 113.076C74.4884 112.589 74.1057 111.919 72.9345 111.919ZM80.101 111.348C79.5536 111.441 78.1103 111.704 77.457 111.824C76.5398 112.132 77.0115 112.602 77.457 112.631C77.9025 112.661 78.1669 112.888 78.1669 113.569V119.415C78.1669 120.65 79.0951 120.926 79.4408 120.926H81.6674C81.9881 120.926 82.4444 120.372 81.6674 120.245C80.8904 120.117 80.8635 119.224 80.8635 118.725V111.638C80.8635 111.264 80.7852 111.232 80.101 111.348ZM79.3716 106.894C79.8689 106.92 80.9164 107.286 80.8635 108.533C80.8035 109.945 79.5 110.034 79.2926 110.034C78.8022 110.041 77.7956 109.75 77.6929 108.533C77.6731 107.987 77.9813 106.894 79.3716 106.894ZM87.8815 114.013C87.8815 113.865 87.8471 113.516 87.8299 113.36L87.817 113.294C87.6919 112.662 87.5448 111.919 86.5729 111.919C85.3158 111.919 85.0166 113.036 84.9247 113.744C84.8327 114.451 84.6205 114.6 84.1961 114.677C83.7717 114.755 83.1421 114.515 83.0077 114.013C82.8733 113.51 83.1067 111.006 86.7992 111.006C90.4326 111.006 90.4291 113.02 90.4281 113.617L90.428 113.645V118.893C90.428 119.532 90.7581 119.681 91.0301 119.804C91.1979 119.88 91.3435 119.945 91.3759 120.11C91.4608 120.542 90.8242 121.023 89.6075 121.023C88.893 121.023 88.525 120.708 88.2211 120.448C88.0074 120.266 87.8255 120.11 87.5773 120.11C87.3201 120.11 87.0758 120.277 86.7962 120.468C86.4224 120.724 85.9855 121.023 85.3703 121.023C84.2951 121.023 82.654 120.215 82.654 118.483C82.654 116.757 83.9623 116.244 84.3274 116.1L84.3305 116.099C84.6292 115.982 85.9703 115.424 86.7803 115.087L87.2024 114.911C87.832 114.649 87.8815 114.196 87.8815 114.013ZM126.307 113.656C126.324 113.813 126.359 114.162 126.359 114.309C126.359 114.493 126.309 114.946 125.68 115.208L125.257 115.383C124.447 115.721 123.106 116.279 122.808 116.396L122.805 116.397C122.44 116.54 121.131 117.053 121.131 118.78C121.131 120.511 122.772 121.319 123.848 121.319C124.463 121.319 124.9 121.021 125.273 120.765C125.553 120.574 125.797 120.407 126.055 120.407C126.303 120.407 126.485 120.562 126.698 120.745C127.002 121.005 127.37 121.319 128.085 121.319C129.301 121.319 129.938 120.838 129.853 120.407C129.821 120.242 129.675 120.176 129.507 120.101C129.235 119.978 128.905 119.829 128.905 119.19V113.941L128.905 113.913C128.906 113.317 128.91 111.303 125.276 111.303C121.584 111.303 121.351 113.807 121.485 114.309C121.619 114.811 122.249 115.052 122.673 114.974C123.098 114.896 123.31 114.748 123.402 114.04C123.494 113.333 123.793 112.215 125.05 112.215C126.022 112.215 126.169 112.959 126.294 113.591L126.307 113.656ZM94.916 111.348C94.5874 111.404 92.9735 111.688 92.2076 111.824C92.1792 111.829 92.1467 111.834 92.1112 111.839C91.8242 111.884 91.3489 111.958 91.4166 112.272C91.4893 112.609 91.7065 112.609 92.1439 112.608L92.2076 112.608C92.6878 112.608 92.7992 113.084 92.7992 113.547V120.564C92.7992 120.82 92.907 120.931 93.0782 120.931H95.2283C95.4109 120.931 95.4553 120.686 95.4547 120.564V114.278C95.4547 113.796 95.8923 112.769 97.37 112.769C98.5521 112.769 98.8054 113.902 98.7842 114.469V119.485C98.7842 120.817 99.837 120.931 100.072 120.931H102.209C102.805 120.931 102.856 120.253 102.241 120.253C101.625 120.253 101.475 119.415 101.475 119.006V116.593C101.475 116.204 101.485 115.836 101.494 115.489V115.489V115.489V115.488V115.488V115.488C101.533 113.935 101.563 112.791 100.692 111.919C99.4267 110.651 97.4575 111.348 96.8029 111.716C96.1483 112.083 95.6605 112.319 95.5321 111.824C95.4038 111.329 95.3267 111.279 94.916 111.348ZM130.8 112.212C131.566 112.077 133.18 111.792 133.508 111.736C133.919 111.667 133.996 111.717 134.124 112.212C134.253 112.707 134.741 112.471 135.395 112.104C136.05 111.736 138.019 111.039 139.285 112.307C140.155 113.179 140.126 114.324 140.086 115.876V115.876V115.876V115.877V115.877C140.077 116.224 140.068 116.592 140.068 116.981V119.394C140.068 119.803 140.218 120.641 140.833 120.641C141.448 120.641 141.397 121.319 140.801 121.319H138.664C138.429 121.319 137.377 121.205 137.377 119.873V114.857C137.398 114.29 137.144 113.157 135.962 113.157C134.485 113.157 134.047 114.185 134.047 114.667V120.952C134.048 121.074 134.003 121.319 133.821 121.319H131.671C131.499 121.319 131.392 121.208 131.392 120.952V113.935C131.392 113.472 131.28 112.996 130.8 112.996L130.736 112.996C130.299 112.997 130.082 112.997 130.009 112.66C129.941 112.346 130.417 112.272 130.704 112.227C130.739 112.222 130.772 112.217 130.8 112.212ZM114.356 107.219H108.97C108.221 107.143 107.895 107.805 109.046 107.957C109.967 108.079 110.081 109.362 110.023 109.988V118.316C110.023 119.641 109.556 120.564 108.84 120.564C108.123 120.564 108.264 121.291 108.785 121.291H112.77C115.387 121.291 116.777 121.183 118.373 120.314C119.969 119.445 120.577 117.1 119.698 115.569C118.924 114.222 117.671 113.909 117.241 113.801C117.182 113.786 117.138 113.776 117.114 113.766C117.067 113.749 117.025 113.736 116.987 113.724C116.855 113.683 116.777 113.659 116.777 113.549C116.777 113.436 116.958 113.365 117.048 113.343C118.178 112.746 119.177 111.79 119.242 110.639C119.307 109.488 118.851 108.413 117.678 107.805C116.74 107.319 115.072 107.212 114.356 107.219ZM141.715 107.847C142.431 107.714 143.99 107.425 144.502 107.333L144.505 107.333C145.142 107.219 145.199 107.209 145.199 108.167V115.409C145.199 115.809 145.313 116.266 145.747 115.935C146.181 115.604 147.849 113.332 148.055 112.996C148.26 112.66 148.066 112.481 147.735 112.394C147.404 112.307 147.335 111.64 147.826 111.64H150.659C151.162 111.64 151.082 112.268 150.579 112.394C150.08 112.519 149.614 113.016 149.114 113.55L149.106 113.559C148.772 113.915 148.297 114.403 147.949 114.761C147.773 114.941 147.629 115.089 147.552 115.17C147.324 115.409 147.415 115.638 147.735 116.061C147.811 116.161 147.983 116.39 148.205 116.686C148.913 117.63 150.135 119.259 150.431 119.625C150.819 120.104 151.482 120.641 151.836 120.641C152.19 120.641 152.339 121.319 151.836 121.319H149.277C148.777 121.319 148.518 120.981 148.276 120.663C148.225 120.597 148.175 120.531 148.123 120.47C147.992 120.313 147.585 119.737 147.14 119.107C146.582 118.316 145.963 117.439 145.747 117.191C145.359 116.746 145.119 117.043 145.119 117.534V120.87C145.119 121.167 145.062 121.319 144.742 121.319H142.949C142.629 121.319 142.503 121.212 142.503 120.767V109.492C142.503 108.83 142.069 108.658 141.715 108.624C141.361 108.59 140.927 108.11 141.715 107.847ZM112.834 112.517V108.801C112.834 108.155 113.1 108.117 113.823 108.155C114.546 108.193 116.22 108.522 116.22 110.754C116.22 112.986 114.724 113.354 113.975 113.455C113.227 113.557 112.834 113.088 112.834 112.517ZM87.7379 118.191V116.732C87.7379 116.596 87.7416 116.477 87.7448 116.373C87.7542 116.067 87.7596 115.892 87.656 115.818C87.3943 115.63 87.1695 115.752 86.6081 116.058C86.5478 116.091 86.4836 116.126 86.4151 116.162C85.7085 116.543 85.2016 117.258 85.1291 117.883C85.0567 118.508 85.4278 119.441 86.4151 119.441C87.4024 119.441 87.7379 118.563 87.7379 118.191ZM64.3657 118.192V116.732C64.3657 116.596 64.3694 116.477 64.3726 116.373C64.382 116.067 64.3873 115.892 64.2838 115.818C64.0221 115.63 63.7973 115.752 63.2359 116.058C63.1756 116.091 63.1114 116.126 63.0428 116.163C62.3363 116.543 61.8294 117.259 61.7569 117.884C61.6844 118.509 62.0556 119.441 63.0428 119.441C64.0301 119.441 64.3657 118.563 64.3657 118.192ZM126.263 117.163V118.622C126.263 118.994 125.927 119.872 124.94 119.872C123.953 119.872 123.582 118.939 123.654 118.314C123.727 117.689 124.233 116.974 124.94 116.593C125.008 116.557 125.072 116.522 125.133 116.489L125.133 116.489C125.694 116.183 125.919 116.061 126.181 116.249C126.285 116.323 126.279 116.498 126.27 116.804L126.27 116.804C126.267 116.908 126.263 117.027 126.263 117.163ZM112.834 115.406V119.122C112.834 119.692 112.942 120.431 113.975 120.431C115.475 120.431 116.873 119.712 116.873 117.48C116.873 115.248 115.048 114.442 113.975 114.442C113.252 114.442 112.834 114.759 112.834 115.406Z" fill="#1D3F88"/>
</svg>
