<svg width="180" height="180" viewBox="0 0 180 180" fill="none" xmlns="http://www.w3.org/2000/svg">
<rect y="0.000732422" width="180" height="180" rx="24" fill="white"/>
<rect x="72.9438" y="97.5244" width="34.1122" height="7.04312" fill="#EF3126"/>
<path fill-rule="evenodd" clip-rule="evenodd" d="M80.3854 87.2287L83.0672 79.71H96.9553L99.5733 87.2287L105.822 84.6603L95.2353 55.2679C94.8069 53.836 93.2059 50.9722 90.2295 50.9722C86.5089 50.9722 85.2236 54.084 84.7839 55.2679C84.4322 56.2151 77.557 75.2575 74.1635 84.6603L80.3854 87.2287ZM85.0846 73.7034H94.8933L90.0228 59.4977L85.0846 73.7034Z" fill="#EF3126"/>
<path fill-rule="evenodd" clip-rule="evenodd" d="M81.0969 120.557V117.819H82.8548V120.557C84.1228 120.1 86.6588 120.107 86.6588 123.784C86.6588 127.462 84.1228 127.315 82.8548 126.781V129.029H81.0969V126.781C79.8385 127.305 77.3217 127.439 77.3217 123.784C77.3217 120.13 79.8385 120.11 81.0969 120.557ZM55.6967 126.965H57.7046L58.2522 125.14H61.4011L61.9943 126.965H63.9338L60.9903 118.044C60.6709 117.884 59.7992 117.66 58.8683 118.044L55.6967 126.965ZM64.3174 126.044L64.8106 127.087C65.4447 126.997 66.7129 126.444 66.7129 124.945V121.971C67.037 121.868 67.8318 121.723 68.418 121.971V126.965H70.1513V120.774C69.4029 120.467 67.3349 120.038 65.0501 120.774V124.635C65.0313 124.973 64.8585 125.728 64.3174 126.044ZM71.4477 126.622V120.464H73.181V122.563C75.492 121.971 76.6757 123.099 76.6757 124.818C76.6757 126.537 75.0411 127.087 73.7869 127.087C72.7836 127.087 71.8094 126.777 71.4477 126.622ZM88.1428 121.891L87.853 120.645C88.1622 120.495 89.1195 120.224 90.4759 120.34C92.1713 120.485 92.3162 121.471 92.3162 122.108V124.586C92.3162 125.467 92.722 126.093 92.9249 126.296L91.8091 127.087L91.1425 126.557C90.5773 127.093 87.2299 127.948 87.2299 125.122C87.2299 122.862 89.5291 122.76 90.6788 122.992C90.7367 122.05 90.4904 121.775 89.8528 121.746C89.3427 121.723 88.5003 121.833 88.1428 121.891ZM106.414 120.645L106.704 121.891C107.061 121.833 107.904 121.723 108.414 121.746C109.051 121.775 109.298 122.05 109.24 122.992C108.09 122.76 105.791 122.862 105.791 125.122C105.791 127.948 109.138 127.093 109.703 126.557L110.37 127.087L111.486 126.296C111.283 126.093 110.877 125.467 110.877 124.586V122.108C110.877 121.471 110.732 120.485 109.037 120.34C107.68 120.224 106.723 120.495 106.414 120.645ZM99.1882 118.21V126.557C100.605 127.234 105.155 127.983 105.155 124.248C105.155 121.261 102.341 121.239 100.934 121.601V119.426C101.884 119.243 103.667 119.35 104.439 119.426V118.21C102.628 117.512 100.184 117.919 99.1882 118.21ZM112.281 120.528H113.998V122.889H115.872V120.528H117.532V126.981H115.872V124.363H113.998V126.981H112.281V120.528ZM120.708 120.528H118.991V126.981H120.708V124.363C121.193 124.363 121.406 124.363 121.659 124.803C121.861 125.155 122.381 126.402 122.615 126.981H124.303V126.557C123.978 125.9 123.283 124.496 123.103 124.135C122.922 123.774 122.588 123.588 122.444 123.54C122.951 123.417 123.179 122.829 123.37 122.336L123.37 122.336C123.417 122.214 123.462 122.098 123.509 121.996C123.697 121.585 124.002 121.602 124.131 121.663L124.222 120.426C122.805 120.201 122.48 120.733 122.318 121.031C122.16 121.32 121.893 121.922 121.679 122.403L121.659 122.448C121.486 122.837 121.238 122.904 121.136 122.889H120.708V120.528ZM95.8329 124.808C95.2329 124.808 94.7383 124.322 94.7383 123.722C94.7383 123.122 95.2329 122.635 95.8329 122.635C96.4328 122.635 96.9275 123.122 96.9275 123.722C96.9275 124.322 96.4328 124.808 95.8329 124.808ZM59.8606 119.744L58.7051 123.631H60.9182L59.8606 119.744ZM73.1582 125.629V123.857C73.7719 123.648 74.9815 123.535 74.911 124.757C74.8405 125.979 73.7131 125.848 73.1582 125.629ZM81.1387 121.986C80.4435 121.64 79.053 121.493 79.053 123.671C79.053 126.393 81.0702 125.492 81.1387 125.433V121.986ZM82.8426 125.433V121.986C83.5378 121.63 84.9283 121.469 84.9283 123.671C84.9283 125.872 83.5378 125.763 82.8426 125.433ZM90.7094 124.142C90.1285 123.999 88.9568 123.945 88.9176 124.877C88.8687 126.042 90.5821 125.711 90.7094 125.572V124.142ZM100.951 125.572V122.998C100.983 122.992 101.02 122.986 101.062 122.978C101.683 122.867 103.346 122.567 103.346 124.356C103.346 125.884 101.749 125.803 100.951 125.572ZM109.157 124.074C109.144 124.436 109.147 125.242 109.265 125.572C108.66 125.792 107.449 125.96 107.449 124.877C107.449 123.793 108.588 123.89 109.157 124.074Z" fill="#EF3126"/>
</svg>
