<svg width="180" height="180" viewBox="0 0 180 180" fill="none" xmlns="http://www.w3.org/2000/svg">
<rect y="0.000732422" width="180" height="180" rx="24" fill="white"/>
<path fill-rule="evenodd" clip-rule="evenodd" d="M95.9434 62.9732L89.9295 56.8881L83.9802 62.9732H79.1419V68.0159L73.2765 73.701L79.1419 79.7013V84.5475H84.1493L89.9295 90.735L95.8221 84.5475H100.721V79.6936L106.723 73.701L100.721 67.7505V62.9732H95.9434Z" fill="#007A5C"/>
<path fill-rule="evenodd" clip-rule="evenodd" d="M96.285 62.9739C96.0669 62.9739 95.858 62.8867 95.7047 62.7316L90.5137 57.479C90.1931 57.1547 89.6689 57.1561 89.3501 57.4822L84.2211 62.7285C84.0676 62.8854 83.8573 62.9739 83.6377 62.9739H79.9585C79.5079 62.9739 79.1427 63.3392 79.1427 63.7897V67.6712C79.1427 67.892 79.0532 68.1033 78.8947 68.257L73.8656 73.1316C73.5411 73.4461 73.5341 73.9644 73.85 74.2876L78.9103 79.4643C79.0593 79.6167 79.1427 79.8214 79.1427 80.0345V83.7325C79.1427 84.183 79.5079 84.5482 79.9585 84.5482H83.7958C84.0218 84.5482 84.2377 84.642 84.392 84.8071L89.3399 90.1037C89.6602 90.4466 90.2031 90.4492 90.5267 90.1094L95.5818 84.8014C95.7358 84.6397 95.9493 84.5482 96.1726 84.5482H99.9056C100.356 84.5482 100.721 84.183 100.721 83.7325V80.0326C100.721 79.816 100.807 79.6083 100.961 79.4553L106.143 74.281C106.463 73.9616 106.462 73.4428 106.141 73.1245L100.963 67.9905C100.808 67.8374 100.721 67.6288 100.721 67.4112V63.7897C100.721 63.3392 100.356 62.9739 99.9056 62.9739H96.285Z" fill="#F9B101"/>
<path fill-rule="evenodd" clip-rule="evenodd" d="M96.7955 60.9339L91.9637 56.0448C90.8418 54.9096 89.0071 54.9146 87.8913 56.0558L83.1223 60.9339H79.9579C78.3811 60.9339 77.1028 62.2122 77.1028 63.789V67.1525L72.4456 71.6665C71.31 72.7673 71.2855 74.5815 72.3911 75.7125L77.1028 80.5326V83.7318C77.1028 85.3087 78.3811 86.587 79.9579 86.587H83.2639L87.8491 91.4953C88.9703 92.6954 90.8704 92.7046 92.003 91.5152L96.6965 86.587H99.9051C101.482 86.587 102.76 85.3087 102.76 83.7318V80.5394L107.584 75.7236C108.703 74.6055 108.7 72.7897 107.576 71.6755L102.76 66.9007V63.789C102.76 62.2122 101.482 60.9339 99.9051 60.9339H96.7955ZM95.7042 62.731C95.8575 62.886 96.0664 62.9733 96.2844 62.9733H99.9051C100.356 62.9733 100.721 63.3385 100.721 63.789V67.4106C100.721 67.6282 100.808 67.8367 100.962 67.9899L106.141 73.1238C106.462 73.4422 106.463 73.9609 106.143 74.2804L100.96 79.4547C100.807 79.6077 100.721 79.8154 100.721 80.032V83.7318C100.721 84.1824 100.356 84.5476 99.9051 84.5476H96.172C95.9488 84.5476 95.7353 84.6391 95.5813 84.8008L90.5262 90.1088C90.2026 90.4486 89.6597 90.446 89.3394 90.1031L84.3914 84.8065C84.2372 84.6413 84.0213 84.5476 83.7953 84.5476H79.9579C79.5074 84.5476 79.1422 84.1824 79.1422 83.7318V80.0339C79.1422 79.8207 79.0588 79.6161 78.9098 79.4636L73.8494 74.2869C73.5336 73.9638 73.5406 73.4454 73.865 73.1309L78.8942 68.2563C79.0527 68.1027 79.1422 67.8913 79.1422 67.6706V63.789C79.1422 63.3385 79.5074 62.9733 79.9579 62.9733H83.6372C83.8568 62.9733 84.067 62.8848 84.2205 62.7278L89.3496 57.4815C89.6684 57.1555 90.1926 57.154 90.5131 57.4784L95.7042 62.731Z" fill="#3D846B"/>
<path d="M76.0165 73.7188L80.051 77.7078C83.3456 74.1986 86.392 73.2283 89.7964 73.1666C92.5199 73.1172 94.1342 71.3686 94.6009 70.5005C96.6315 67.1282 94.5707 64.2 93.2865 63.1575L89.7964 59.8489L76.0165 73.7188Z" fill="#3D846B"/>
<path d="M103.839 73.6851L99.8044 69.696C96.5098 73.2052 93.4634 74.1755 90.059 74.2373C87.3355 74.2867 85.7211 76.0352 85.2544 76.9033C83.2238 80.2757 85.2846 83.2038 86.5689 84.2464L90.059 87.5549L103.839 73.6851Z" fill="#3D846B"/>
<path d="M90.4 101.922H93.2313V115.226C93.2313 115.226 93.1499 116.139 93.626 116.541C94.102 116.943 95.1536 116.881 95.1536 116.881V119.413C95.1536 119.413 92.4408 119.981 91.3892 118.727C90.3376 117.474 90.4 115.226 90.4 115.226V101.922Z" fill="#3D846B"/>
<path d="M95.408 106.825L98.3352 106.825L102.839 118.224L100.391 119.16L95.408 106.825Z" fill="#3D846B"/>
<path d="M107.929 106.824L105.001 106.824L100.448 118.725C100.448 118.725 100 119.825 99.2003 120.385C98.4002 120.945 97.2479 120.849 97.2479 120.849L97.2479 123.362C97.2479 123.362 99.2002 123.858 100.576 122.977C101.953 122.097 102.896 119.66 102.896 119.66L107.929 106.824Z" fill="#3D846B"/>
<rect x="109.76" y="101.922" width="2.83133" height="17.2835" fill="#3D846B"/>
<path d="M120.447 106.825L117.2 106.825L111.351 112.782L113.489 113.971L120.447 106.825Z" fill="#3D846B"/>
<path d="M120.898 119.206L117.123 119.206L112.259 112.962L114.926 111.773L120.898 119.206Z" fill="#3D846B"/>
<path fill-rule="evenodd" clip-rule="evenodd" d="M70.1338 102.11H73.1751V119.462H70.1338V111.78H62.2563V119.462H59.1014V102.11H62.2563V109.09L70.1338 109.09V102.11Z" fill="#3D846B"/>
<path fill-rule="evenodd" clip-rule="evenodd" d="M84.9137 118.006C83.854 118.916 82.5003 119.462 81.0254 119.462C77.6284 119.462 74.8746 116.566 74.8746 112.994C74.8746 109.422 77.6284 106.527 81.0254 106.527C82.5003 106.527 83.854 107.073 84.9137 107.983V106.652H87.7291V119.462H84.9137V118.006ZM84.9137 114.313C84.4148 115.807 83.0918 116.876 81.5381 116.876C79.5565 116.876 77.9501 115.138 77.9501 112.995C77.9501 110.852 79.5565 109.114 81.5381 109.114C83.0918 109.114 84.4148 110.182 84.9137 111.677V114.313Z" fill="#3D846B"/>
</svg>
