<svg width="180" height="180" viewBox="0 0 180 180" fill="none" xmlns="http://www.w3.org/2000/svg">
<rect y="0.000732422" width="180" height="180" rx="24" fill="white"/>
<circle cx="90" cy="78.6125" r="22.2095" fill="#EE3148"/>
<path d="M101.182 70.3236C99.4344 67.9664 96.9868 66.2218 94.1886 65.3388C91.3905 64.4558 88.3848 64.4797 85.601 65.407C82.8172 66.3344 80.3977 68.1178 78.688 70.5024C76.9784 72.8871 76.0661 75.751 76.0814 78.6851C76.0967 81.6193 77.0389 84.4736 78.7733 86.8402C80.5078 89.2069 82.9458 90.9649 85.7391 91.8631C88.5324 92.7614 91.5382 92.7539 94.327 91.8417C97.1158 90.9296 99.545 89.1595 101.268 86.7842L95.4245 82.5465C94.5952 83.69 93.4257 84.5421 92.0831 84.9813C90.7405 85.4204 89.2935 85.424 87.9488 84.9916C86.604 84.5591 85.4303 83.7128 84.5953 82.5735C83.7603 81.4341 83.3068 80.06 83.2994 78.6475C83.292 77.2349 83.7312 75.8562 84.5543 74.7082C85.3773 73.5602 86.5421 72.7016 87.8823 72.2552C89.2225 71.8087 90.6694 71.7972 92.0165 72.2223C93.3636 72.6474 94.5419 73.4873 95.3831 74.6221L101.182 70.3236Z" fill="white"/>
<path fill-rule="evenodd" clip-rule="evenodd" d="M47.8744 111.899H50.5152C50.4443 110.65 48.8402 108.151 45.6857 108.151C41.069 108.151 39.9261 112.336 39.9261 114.405C39.9261 116.474 41.0773 120.581 45.6857 120.581C49.3725 120.581 50.4415 117.874 50.5152 116.52H48.1246C48.1246 116.723 47.5023 118.325 45.6857 118.325C43.8692 118.325 42.4774 116.878 42.4774 114.405C42.4774 111.931 43.8224 110.397 45.6857 110.397C47.1765 110.397 47.766 111.398 47.8744 111.899ZM53.7094 114.171H51.3915C51.3915 113.611 51.7085 111.531 55.2807 111.531C58.1384 111.531 58.8726 113.291 58.8825 114.171V120.316H56.753V119.641C56.753 119.424 56.57 119.482 56.4785 119.538C54.5651 121.359 50.8781 120.721 50.8937 117.827C50.9061 115.512 53.0768 114.923 54.1606 114.918H56.6652C56.6912 114.368 56.4505 113.269 55.2807 113.269C54.1108 113.269 53.7457 113.871 53.7094 114.171ZM60.134 111.757H62.3733V112.628H62.656C62.8897 112.263 63.7032 111.531 65.0875 111.531C66.8178 111.531 68.8196 112.99 68.8196 116.202C68.8196 119.414 66.5125 120.556 65.0875 120.556C63.6625 120.556 62.9727 119.833 62.7578 119.538H62.4524V123.598H60.134V111.757ZM71.9071 111.757H69.6565V120.316H71.9071V111.757ZM69.6565 108.218V110.332H71.9071V108.218H69.6565ZM75.4037 108.218H73.1528V117.475C73.1528 119.732 74.7097 120.31 75.4881 120.316H77.549V118.36H76.3726C75.6292 118.36 75.4169 117.77 75.4037 117.475V113.694H77.549V111.757H75.4037V108.218ZM78.3486 114.171H80.6665C80.7028 113.871 81.0679 113.269 82.2378 113.269C83.4076 113.269 83.6483 114.368 83.6223 114.918H81.1177C80.0339 114.923 77.8632 115.512 77.8508 117.827C77.8352 120.721 81.5222 121.359 83.4356 119.538C83.5271 119.482 83.7101 119.424 83.7101 119.641V120.316H85.8396V114.171C85.8298 113.291 85.0955 111.531 82.2378 111.531C78.6656 111.531 78.3486 113.611 78.3486 114.171ZM89.3733 108.218H87.0831V120.316H89.3733V108.218ZM90.8819 108.494H96.6005C97.8348 108.471 100.303 109.046 100.303 111.531C100.303 112.178 100.054 113.576 99.0553 113.993V114.309C99.5947 114.537 100.674 115.431 100.674 117.175C100.674 119.355 98.4519 120.316 96.9845 120.316H90.8819V108.494ZM103.889 114.171H101.572C101.572 113.611 101.889 111.531 105.461 111.531C108.318 111.531 109.053 113.291 109.063 114.171V120.316H106.933V119.641C106.933 119.424 106.75 119.482 106.659 119.538C104.745 121.359 101.058 120.721 101.074 117.827C101.086 115.512 103.257 114.923 104.341 114.918H106.845C106.871 114.368 106.631 113.269 105.461 113.269C104.291 113.269 103.926 113.871 103.889 114.171ZM110.33 111.743V120.316H112.567V115.601C112.591 114.936 113.023 113.607 114.561 113.607C115.092 113.626 116.153 113.986 116.153 115.271V120.316H118.448V114.918C118.477 113.789 117.877 111.531 115.249 111.531C114.757 111.525 113.586 111.731 112.84 112.603H112.567V111.743H110.33ZM119.653 120.316V108.214H121.976V115.185L125.132 111.743H127.742L125.332 114.468L128.23 120.316H125.734L123.669 116.103L121.976 117.827V120.316H119.653ZM129.65 119.631V120.316H130.266V119.631H129.65ZM131.59 120.316V115.185H132.055V117.897L134.905 115.185H135.526L133.909 116.819L135.736 120.316H135.215L133.507 117.194L132.055 118.536V120.316H131.59ZM136.402 115.185H139.983V115.787L136.786 119.678V119.86H140.074V120.316H136.229V119.678L139.416 115.787V115.586H136.402V115.185ZM93.3243 110.515V113.111H96.5807C96.9888 113.086 97.8049 112.792 97.8049 111.813C97.8049 110.834 96.9888 110.54 96.5807 110.515H93.3243ZM93.3243 115.216V118.203H96.7031C97.1887 118.142 98.1599 117.767 98.1599 116.759C98.1599 115.498 96.9602 115.216 96.7031 115.216H93.3243ZM56.6473 116.406C56.739 117.425 56.2883 118.665 54.7902 118.665C52.5421 118.665 52.9847 116.406 54.3575 116.406H56.6473ZM83.6173 116.406C83.709 117.425 83.2582 118.665 81.7602 118.665C79.5121 118.665 79.9547 116.406 81.3275 116.406H83.6173ZM104.954 118.665C106.452 118.665 106.902 117.425 106.811 116.406H104.521C103.148 116.406 102.705 118.665 104.954 118.665ZM62.3567 116.095C62.3567 115.126 62.6461 113.457 64.5273 113.457C65.1805 113.472 66.4869 113.987 66.4869 115.929C66.4869 118.356 64.9041 118.582 64.5273 118.582C64.1505 118.582 62.3567 118.537 62.3567 116.095Z" fill="#283A51"/>
</svg>
