<svg width="102" height="56" viewBox="0 0 102 56" fill="none" xmlns="http://www.w3.org/2000/svg">
<rect x="0.67395" y="0.083374" width="100.5" height="55.8332" rx="12.9758" fill="white"/>
<path d="M34.3144 29.2017C34.3144 27.7748 34.3144 26.3479 34.3144 24.9049C34.3144 23.5915 35.0172 22.7646 36.1123 22.7483C37.2563 22.7321 37.9591 23.5591 37.9755 24.9373C37.9755 25.5534 37.9918 26.1858 37.9755 26.8019C37.9591 27.2722 38.1062 27.4992 38.6129 27.4829C39.757 27.4505 40.9011 27.4505 42.0452 27.4505C42.4865 27.4505 42.6826 27.3046 42.6663 26.8344C42.6499 26.1534 42.6499 25.4886 42.6663 24.8076C42.6826 23.5591 43.3854 22.7646 44.4641 22.7483C45.5428 22.7321 46.2947 23.5429 46.2947 24.7751C46.2947 27.2073 46.2947 29.6232 46.2783 32.0554C46.2783 32.5743 46.311 32.8985 46.9975 32.9148C47.8637 32.931 48.5175 33.6444 48.5665 34.5038C48.6156 35.201 48.6156 35.9144 48.5829 36.6116C48.5338 37.5845 47.7983 38.2169 46.785 38.2331C45.788 38.2493 45.0035 37.6169 44.9871 36.6441C44.9708 36.0117 44.791 35.7685 44.1372 35.6712C43.2547 35.5577 42.7316 34.8767 42.6826 33.9687C42.6499 33.2228 42.6499 32.4608 42.6663 31.6987C42.6826 31.2447 42.5682 31.0015 42.0288 31.0015C40.8848 31.0177 39.7407 31.0177 38.5966 30.9852C38.0736 30.969 37.9428 31.2122 37.9591 31.6662C37.9755 32.3959 37.9918 33.1255 37.9591 33.8552C37.9101 34.974 37.1583 35.7198 36.1123 35.7036C35.0826 35.6874 34.3307 34.9253 34.3144 33.8065C34.298 32.2824 34.3144 30.742 34.3144 29.2017Z" fill="#110D09"/>
<path d="M61.5932 31.342C61.5932 32.1527 61.5932 32.9634 61.5932 33.7741C61.5932 34.5038 61.3153 35.0875 60.6452 35.428C59.9424 35.7847 59.2233 35.7037 58.6839 35.1524C58.2426 34.6984 57.9157 34.974 57.5235 35.1199C54.5162 36.3198 51.0675 35.3794 49.5148 32.8175C48.1092 30.4988 48.0602 28.0667 49.4985 25.7642C50.9204 23.4618 53.1923 22.6511 55.8237 22.9105C58.4224 23.1862 60.2693 24.532 61.2009 27.0128C61.7076 28.4072 61.5278 29.8827 61.5932 31.342ZM54.9248 32.2014C56.8043 32.1851 58.0792 30.888 58.0465 28.9909C58.0302 27.3857 56.7717 26.2507 55.0228 26.2669C53.1759 26.2831 51.9828 27.4505 51.9828 29.2503C51.9992 31.0826 53.1106 32.2014 54.9248 32.2014Z" fill="#110D09"/>
<path d="M32.9091 29.2504C32.9091 32.8662 29.9835 35.7524 26.306 35.7362C22.6613 35.7362 19.752 32.8662 19.7357 29.2829C19.7193 25.6671 22.6286 22.7647 26.306 22.7485C29.9671 22.7323 32.9091 25.6184 32.9091 29.2504ZM24.6716 30.3044C25.0312 30.3206 25.3744 30.3044 25.734 30.3206C25.9138 30.3206 26.1426 30.2395 26.257 30.4341C26.3714 30.6449 26.1262 30.7584 26.0282 30.8881C25.5705 31.407 25.4888 31.942 25.9791 32.4771C26.4204 32.9311 27.0415 32.8825 27.6299 32.3312C28.3817 31.6177 29.1172 30.9043 29.8364 30.1747C30.4738 29.5261 30.4738 28.991 29.8364 28.3587C29.1336 27.6452 28.4144 26.948 27.6953 26.2508C27.0905 25.6671 26.4204 25.5698 25.9791 26.0238C25.4561 26.5751 25.5705 27.1426 26.0772 27.6614C26.1916 27.7749 26.3551 27.8722 26.2733 28.0668C26.1916 28.2452 25.9955 28.1965 25.832 28.1965C25.0148 28.2127 24.1976 28.1803 23.3804 28.2127C22.7593 28.2452 22.3507 28.6019 22.3507 29.2504C22.3507 29.8828 22.7267 30.2557 23.3641 30.3044C23.8054 30.3368 24.2467 30.3044 24.6716 30.3044Z" fill="#110D09"/>
<path d="M76.4991 29.0721C76.4991 30.4503 76.5155 31.8285 76.4991 33.2067C76.4828 34.893 75.3224 35.6875 73.7697 35.0228C73.312 34.8282 73.0342 35.039 72.7073 35.1849C69.0135 36.7415 64.666 34.7471 63.5709 31.0016C63.3584 30.2882 63.3748 29.5585 63.3748 28.8289C63.3584 27.4993 63.3584 26.1859 63.3421 24.8563C63.3257 23.6565 64.0285 22.8458 65.0746 22.8296C66.1206 22.8133 66.8724 23.5754 66.9051 24.7753C66.9378 26.2508 66.9378 27.7425 66.9541 29.218C66.9705 30.9205 68.2944 32.1852 70.0432 32.2015C71.7593 32.2177 72.9034 31.0665 72.9198 29.2829C72.9361 27.8074 72.9034 26.3156 72.9034 24.8401C72.9034 23.6565 73.5408 22.8944 74.5705 22.8296C75.6493 22.7647 76.4174 23.4943 76.4665 24.7104C76.5155 26.1697 76.4828 27.629 76.4828 29.0721C76.4828 29.0721 76.4828 29.0721 76.4991 29.0721Z" fill="#110D09"/>
<path d="M82.1051 26.9154C82.1051 27.6937 82.1214 28.472 82.1051 29.2665C82.0724 30.3367 81.3206 31.0663 80.3072 31.0663C79.2939 31.0663 78.5257 30.3367 78.493 29.2665C78.4603 27.7099 78.4603 26.1371 78.493 24.5806C78.5094 23.5104 79.2939 22.7808 80.3072 22.7808C81.3206 22.7808 82.0724 23.5104 82.1051 24.5806C82.1214 25.3588 82.1051 26.1371 82.1051 26.9154Z" fill="#110D09"/>
<path d="M69.8138 21.3702C69.2907 21.3702 68.7841 21.4026 68.2611 21.3702C67.2477 21.3053 66.5122 20.5595 66.5122 19.5866C66.4959 18.63 67.215 17.8517 68.2447 17.803C69.3561 17.7544 70.4839 17.7544 71.5953 17.803C72.5759 17.8355 73.2787 18.5975 73.3114 19.5217C73.3441 20.4298 72.6576 21.2405 71.6933 21.3378C71.0723 21.4026 70.4512 21.354 69.8138 21.354C69.8138 21.3702 69.8138 21.3702 69.8138 21.3702Z" fill="#110D09"/>
<path d="M82.1047 33.9524C82.1047 34.9577 81.3202 35.736 80.3069 35.7197C79.2935 35.7197 78.4927 34.9252 78.4927 33.9362C78.4927 32.9471 79.2935 32.1688 80.3069 32.1526C81.3039 32.1526 82.1047 32.9471 82.1047 33.9524Z" fill="#110D09"/>
</svg>
