<svg width="102" height="56" viewBox="0 0 102 56" fill="none" xmlns="http://www.w3.org/2000/svg">
<rect x="0.944092" y="0.083374" width="100.5" height="55.8332" rx="12.9758" fill="white"/>
<path d="M29.0837 12.581C29.5 12.581 29.9272 12.6144 30.3435 12.581C30.6831 12.5588 30.7707 12.67 30.7707 13.0146C30.7488 14.4821 30.7598 15.9495 30.7707 17.417C30.7707 17.517 30.716 17.6393 30.8693 17.7616C31.6033 16.9056 32.3263 16.0607 33.0603 15.2047C33.7395 14.4154 34.4187 13.626 35.0979 12.8367C35.2074 12.7144 35.2951 12.5921 35.4922 12.5921C36.1276 12.6033 36.752 12.5921 37.5298 12.5921C36.9821 13.2147 36.5329 13.7483 36.0838 14.2708C35.2951 15.1824 34.5282 16.1163 33.7176 17.0056C33.4437 17.3058 33.4766 17.4837 33.6957 17.7838C34.9993 19.607 36.2919 21.4525 37.5846 23.2868C37.6832 23.4313 37.8475 23.5425 37.8256 23.7982C37.2121 23.7982 36.5987 23.7871 35.9852 23.7982C35.7004 23.8093 35.6237 23.587 35.5032 23.4202C34.5063 22.0083 33.4985 20.5853 32.5125 19.1624C32.3044 18.8511 32.2168 18.8177 31.8991 19.1068C30.9789 19.9628 30.7598 20.1184 30.7379 22.2196C30.7379 22.8199 30.7379 23.0645 30.7488 23.4869C30.7598 23.7204 30.6831 23.8093 30.4421 23.7982C29.982 23.7871 29.5329 23.7982 29.0728 23.7982C29.0837 20.074 29.0837 16.3275 29.0837 12.581Z" fill="#0A0909"/>
<path d="M34.852 35.7072C35.356 35.218 35.8708 34.7289 36.3748 34.2397C36.4953 34.1286 36.6267 34.1174 36.7801 34.1174C37.5688 34.1174 38.3466 34.1397 39.1354 34.1063C39.4749 34.0952 39.5188 34.2397 39.5188 34.5288C39.5078 35.5404 39.5078 36.541 39.5188 37.5526C39.5188 37.8305 39.4311 38.0418 39.2449 38.2419C37.5469 40.0651 35.4765 40.721 33.1102 39.965C30.7878 39.2313 29.4075 37.5749 29.1227 35.118C28.8379 32.6833 29.769 30.7601 31.8176 29.4816C33.8771 28.192 35.9804 28.3032 38.0508 29.5594C38.4123 29.7818 38.5438 29.9485 38.1385 30.2598C37.8536 30.4821 37.6565 30.8712 37.3497 30.9935C37.0211 31.1269 36.7253 30.7267 36.4076 30.5933C34.8959 29.993 33.1212 30.3487 31.9709 31.5049C30.7659 32.7056 30.4263 34.4843 31.0946 36.0629C31.7409 37.586 33.1869 38.5309 34.874 38.542C35.8927 38.5532 36.7582 38.2085 37.525 37.5749C37.7441 37.397 37.9303 36.1296 37.777 35.9295C37.6784 35.8184 37.536 35.8628 37.4155 35.8628C36.5938 35.8628 35.7832 35.8628 34.9616 35.8628C34.9178 35.8072 34.8849 35.7628 34.852 35.7072Z" fill="#110F0F"/>
<path d="M65.6574 33.4283C67.5416 32.1054 69.4259 32.2833 70.7623 33.873C72.044 35.3961 71.9893 37.6306 70.609 39.0647C69.1958 40.5433 67.3554 40.6545 65.6574 39.2982C65.6574 39.6873 65.6574 40.0208 65.6574 40.3654C65.6574 41.0658 65.6574 41.7551 65.6574 42.4554C65.6574 43.834 65.6574 43.8228 64.2771 43.7228C64.0361 43.7005 63.9813 43.6227 63.9813 43.4004C63.9813 39.9541 63.9923 36.5078 63.9813 33.0504C63.9813 32.8058 64.069 32.728 64.299 32.7391C64.5181 32.7502 64.7372 32.7613 64.9563 32.7391C65.4493 32.6835 65.8108 32.7613 65.6574 33.4283ZM67.8155 38.5311C69.0534 38.5311 70.0284 37.5639 70.0065 36.3521C69.9845 35.1737 68.9877 34.1954 67.8265 34.1954C66.6543 34.1954 65.6684 35.196 65.6684 36.3633C65.6574 37.5639 66.6214 38.5311 67.8155 38.5311Z" fill="#0A0909"/>
<path d="M71.3143 23.0533C69.5725 24.6986 67.4911 23.9871 66.3956 22.8754C64.9605 21.408 64.9277 19.0512 66.2861 17.5503C67.4034 16.3163 69.5725 15.616 71.3033 17.2279C71.1281 16.4053 71.6429 16.4942 72.114 16.5165C72.3112 16.5276 72.5193 16.5276 72.7165 16.5165C72.9466 16.5053 73.0342 16.5832 73.0342 16.8277C73.0232 19.0512 73.089 21.2635 72.9904 23.4869C72.9575 24.1984 72.2016 23.6648 71.7854 23.7982C71.5772 23.8649 71.2376 23.8982 71.3033 23.4646C71.3362 23.3535 71.3143 23.2423 71.3143 23.0533ZM69.1781 22.2973C70.3831 22.2862 71.3253 21.3524 71.3253 20.1406C71.3253 18.9511 70.3503 17.9728 69.1781 17.9617C67.9731 17.9506 67.0091 18.94 67.02 20.1629C67.031 21.3969 67.9512 22.3085 69.1781 22.2973Z" fill="#110F0F"/>
<path d="M54.214 24.0319C52.0997 24.0319 50.3579 22.2865 50.336 20.1632C50.3141 18.0509 52.1435 16.1943 54.2249 16.2499C55.3642 16.2833 56.3392 16.7169 57.117 17.5729C57.4018 17.8953 57.4895 18.0954 57.1061 18.4511C55.9558 19.5406 54.8494 20.6857 53.7429 21.8196C53.6553 21.9085 53.4472 21.9864 53.5238 22.1531C53.5896 22.2976 53.7758 22.2643 53.9182 22.2754C54.6741 22.3643 55.3314 22.1531 55.8243 21.5639C56.0215 21.3305 56.1201 21.3749 56.2735 21.575C56.3721 21.6973 56.5035 21.8085 56.624 21.9308C57.3251 22.6423 57.3251 22.6312 56.5364 23.2315C55.8463 23.7651 55.0685 24.0208 54.214 24.0319ZM54.937 18.1065C54.0059 17.8063 53.2171 18.0287 52.5708 18.7402C52.0121 19.3738 51.9025 20.1409 52.2093 20.8413C53.1076 19.9408 54.0168 19.0292 54.937 18.1065Z" fill="#110F0F"/>
<path d="M41.8349 24.0318C39.7207 24.0318 37.9679 22.2753 37.9679 20.163C37.9679 18.0507 39.7097 16.2831 41.824 16.2498C43.9273 16.2275 45.702 18.0174 45.702 20.1741C45.702 22.3086 43.9711 24.0318 41.8349 24.0318ZM41.8349 22.2975C43.0619 22.2975 43.9821 21.3859 43.993 20.1741C44.004 18.9401 43.04 17.9618 41.8349 17.9618C40.6628 17.9618 39.6878 18.9512 39.6878 20.1296C39.6878 21.3525 40.6299 22.2975 41.8349 22.2975Z" fill="#110F0F"/>
<path d="M54.0999 36.3744C54.0999 38.52 52.391 40.2543 50.2657 40.2543C48.1186 40.2543 46.4097 38.5645 46.4097 36.4078C46.4097 34.2288 48.1515 32.439 50.2548 32.4723C52.38 32.5057 54.089 34.2511 54.0999 36.3744ZM50.2219 38.5311C51.4489 38.5311 52.4457 37.5528 52.4238 36.3633C52.4019 35.196 51.405 34.2066 50.2438 34.2066C49.0717 34.2066 48.0967 35.1849 48.0857 36.3744C48.0748 37.5751 49.0279 38.5311 50.2219 38.5311Z" fill="#110F0F"/>
<path d="M60.5745 39.2648C59.6324 40.1097 58.7013 40.4432 57.6058 40.1653C56.3241 39.8429 55.4039 38.7089 55.3929 37.386C55.382 35.9741 55.3929 34.5622 55.382 33.1504C55.382 32.8613 55.4258 32.739 55.7654 32.7279C57.1128 32.6946 57.1128 32.6834 57.1128 34.0508C57.1128 34.9625 57.1019 35.8852 57.1128 36.7968C57.1238 37.7973 57.8687 38.5533 58.8218 38.5533C59.7639 38.5644 60.5307 37.7751 60.5307 36.7968C60.5416 35.585 60.5416 34.3732 60.5307 33.1726C60.5307 32.8502 60.5855 32.7279 60.947 32.7279C62.2616 32.7168 62.2616 32.6946 62.2616 34.0286C62.2616 35.8852 62.2506 37.7306 62.2725 39.5872C62.2725 39.9429 62.1739 40.0874 61.8124 40.043C61.5933 40.0207 61.3742 40.0096 61.1551 40.043C60.6622 40.1097 60.4102 39.9652 60.5745 39.2648Z" fill="#110F0F"/>
<path d="M61.4768 24.0316C60.217 24.0205 59.2858 23.5869 58.5081 22.7976C58.3437 22.6309 58.2561 22.4975 58.4971 22.3307C58.5738 22.2751 58.6286 22.1973 58.6943 22.1417C58.9243 21.9083 59.1215 21.5748 59.3954 21.4636C59.724 21.3413 59.8774 21.7971 60.1513 21.9527C60.7319 22.2862 61.3453 22.3863 61.9807 22.264C62.2765 22.2084 62.5394 22.0861 62.5723 21.7193C62.6051 21.3413 62.3532 21.1857 62.0684 21.1078C61.4768 20.93 60.8743 20.8188 60.2827 20.6298C58.9462 20.2073 58.4971 19.5514 58.6067 18.2619C58.6943 17.2724 59.5707 16.4942 60.7319 16.3164C61.8164 16.1607 62.7695 16.4275 63.6458 17.0723C63.9416 17.2947 64.095 17.4948 63.7006 17.7616C63.6568 17.7949 63.613 17.8394 63.5801 17.8728C63.1967 18.373 62.8352 18.7065 62.156 18.1951C61.7397 17.8728 61.1701 17.8728 60.6333 18.0617C60.4032 18.1507 60.2608 18.3063 60.2608 18.5509C60.2608 18.7732 60.4032 18.9066 60.6114 18.9956C61.1372 19.2179 61.6959 19.2735 62.2436 19.418C63.0872 19.6515 63.8868 19.9405 64.1717 20.9077C64.5332 22.1084 63.9088 23.309 62.638 23.7871C62.2436 23.9538 61.7945 24.065 61.4768 24.0316Z" fill="#110F0F"/>
<path d="M48.8133 18.1953C48.8133 19.8963 48.8023 21.6083 48.8242 23.3092C48.8242 23.665 48.7695 23.8206 48.3641 23.8095C47.1482 23.7984 47.1482 23.8095 47.1482 22.5977C47.1482 19.4405 47.1591 16.2832 47.1372 13.1259C47.1372 12.659 47.2577 12.559 47.7069 12.5701C48.8242 12.6034 48.8242 12.5812 48.8242 13.7263C48.8133 15.2271 48.8133 16.7168 48.8133 18.1953Z" fill="#0A0909"/>
<path d="M42.8713 33.5726C43.5614 32.8612 44.2516 32.5721 45.0403 32.4943C45.3909 32.4609 45.6099 32.5388 45.5442 32.9612C45.5223 33.0724 45.5442 33.1835 45.5442 33.2947C45.5442 33.5726 45.6319 33.8839 45.5223 34.1063C45.3908 34.3842 45.0403 34.173 44.7774 34.2174C43.7148 34.4064 42.937 35.3069 42.926 36.4742C42.9041 37.5192 42.9151 38.5642 42.926 39.6092C42.926 39.9205 42.8822 40.0539 42.5207 40.0539C41.25 40.0539 41.25 40.0762 41.25 38.7755C41.25 36.9189 41.2609 35.0735 41.239 33.2169C41.239 32.8167 41.3486 32.6944 41.732 32.75C41.8963 32.7722 42.0606 32.7722 42.2249 32.75C42.7069 32.6833 43.0575 32.7611 42.8713 33.5726Z" fill="#0A0909"/>
</svg>
