<svg width="101" height="56" viewBox="0 0 101 56" fill="none" xmlns="http://www.w3.org/2000/svg">
<rect x="0.484558" y="0.083374" width="100.5" height="55.8332" rx="12.9758" fill="white"/>
<path d="M17.9237 33.7112L26.0324 38.5764V32.0952C26.0041 31.3204 25.5568 29.7708 23.6545 29.7708C21.2766 29.7708 21.0924 32.3707 21.9266 33.4235C22.5939 34.2656 21.9133 34.198 21.4896 34.0589C19.5036 33.328 19.1792 31.283 19.2652 30.3519C20.1391 26.6554 23.9447 27.096 25.7383 27.7784C25.114 23.1429 26.7084 20.3679 27.5837 19.5599C29.4442 21.4204 29.4088 25.8141 29.1585 27.7784C32.2846 25.9355 35.5839 28.1769 35.5839 30.3519C35.5839 32.5269 34.6375 33.4235 33.6247 33.8717C32.6119 34.32 32.2633 34.0046 32.944 33.4235C33.6247 32.8424 33.9236 29.7708 31.3667 29.7708C29.3212 29.7708 28.7445 31.3204 28.7118 32.0952V38.5764L37.032 33.7112V22.8174L27.5837 17.4234L17.9237 22.8174V33.7112Z" fill="#F57800"/>
<path fill-rule="evenodd" clip-rule="evenodd" d="M52.861 20.7746H52.8835C53.266 20.7746 53.576 20.4645 53.576 20.082C53.576 19.6995 53.266 19.3895 52.8835 19.3895H52.861C52.4785 19.3895 52.1684 19.6995 52.1684 20.082C52.1684 20.4645 52.4785 20.7746 52.861 20.7746ZM41.7712 26.1982H43.2932C43.2932 26.1982 43.0852 25.8849 43.1498 25.6882C43.2144 25.4914 43.5764 24.3019 43.5764 24.3019H45.6733L46.2568 26.1982H47.4237L45.3633 19.7616H43.8499L41.7712 26.1982ZM50.862 22.7075L51.2255 21.7108C51.0301 21.5936 50.5055 21.3591 49.9709 21.3591C49.3025 21.3591 48.1651 21.8164 48.1651 22.8716C48.1651 23.7344 48.8941 24.0012 49.3971 24.1853C49.5093 24.2264 49.6103 24.2634 49.6894 24.3019C50.1233 24.5132 50.2874 24.736 50.2874 25.0995C50.2874 25.463 49.9005 25.6037 49.3846 25.6037C48.8687 25.6037 48.5286 25.334 48.3879 25.0057L48.1651 26.061C48.3567 26.1704 48.8687 26.3893 49.3846 26.3893C50.0295 26.3893 51.3779 26.0727 51.3779 25.0057C51.3779 23.9764 50.756 23.7218 50.1752 23.484L50.1116 23.4579C49.5136 23.2117 49.2439 23.0358 49.2439 22.7075C49.2439 22.3792 50.135 21.6991 50.862 22.7075ZM52.3035 26.1982V21.5291H53.3846V25.8646L53.7337 26.1982H52.3035ZM54.9791 22.6411L54.6068 21.8799C55.1892 21.4497 56.0023 21.3534 56.336 21.3591C58.1149 21.3591 58.2307 22.8149 58.2307 23.2699V25.6037C58.2307 25.9019 58.4458 26.1243 58.5534 26.1982H57.1882V25.7024C56.7414 26.3992 54.2593 26.7946 54.2593 25.0057C54.2593 23.3098 56.2119 23.0591 57.1882 23.1458C57.1882 21.913 55.732 22.1364 55.4011 22.244C55.1363 22.33 55.0094 22.5446 54.9791 22.6411ZM63.8654 21.0623L64.2721 19.9735C64.0141 19.8291 63.3328 19.5405 62.6716 19.5405C61.8451 19.5405 59.1557 19.798 59.1557 23.1458C59.1557 26.4936 62.8159 26.8645 64.0754 25.982L63.8654 25.1817C63.6555 25.2604 63.0809 25.4179 62.4617 25.4179C61.6877 25.4179 60.2708 24.5808 60.2708 23.1458C60.2708 21.7108 61.0711 20.4982 62.6716 20.4982C62.9777 20.5026 63.645 20.6215 63.8654 21.0623ZM65.9514 21.5291H64.6526L64.9937 22.0725V26.1982H66.3449C66.1665 26.1982 66.1307 25.8677 66.135 25.7024V23.3582C66.135 22.55 67.1146 22.4442 67.6044 22.4923V21.5291C67.1111 20.9571 66.2968 21.863 65.9514 22.3874V21.5291ZM72.3129 24.2196C72.3883 23.293 72.0773 21.3591 70.2939 21.3591C68.0645 21.3591 67.9999 23.8157 67.9999 24.1388C67.9999 24.4619 68.3553 26.3893 70.4716 26.3893C70.8862 26.3467 71.7736 26.2056 72.0062 25.982L71.8124 25.3019C71.5485 25.3719 70.911 25.512 70.4716 25.512C69.9223 25.512 69.1146 25.081 69.0661 24.2196H72.3129ZM78.8374 26.1982V21.5291H79.9185V25.8646L80.2676 26.1982H78.8374ZM79.3948 20.7746H79.4174C79.7998 20.7746 80.1099 20.4645 80.1099 20.082C80.1099 19.6995 79.7998 19.3895 79.4174 19.3895H79.3948C79.0123 19.3895 78.7023 19.6995 78.7023 20.082C78.7023 20.4645 79.0123 20.7746 79.3948 20.7746ZM76.4126 19.8231V21.9781C74.7887 20.506 72.9828 22.0725 72.9828 23.8296C72.9828 25.5866 73.9844 26.3893 74.986 26.3893C75.7873 26.3893 76.3519 25.8044 76.534 25.512V26.1982H77.8391L77.5508 25.8646V19.3895H76.1546L76.4126 19.8231ZM80.6315 21.5291L80.8591 21.9781V22.3874H81.3599V25.3019C81.3498 25.607 81.5451 26.2345 82.4071 26.3033C82.6651 26.3142 83.2539 26.3085 83.5453 26.1982V25.3019C83.4188 25.3719 83.1175 25.4108 82.9233 25.4108C82.6805 25.4108 82.4071 25.3754 82.4071 24.9212V22.3874H83.5453V21.5291H82.4071V20.3122L81.3599 20.6424V21.5291H80.6315ZM43.6643 23.4825H45.4504L44.5882 20.6317L43.6643 23.4825ZM57.2123 23.9264C57.2779 24.5076 57.1443 25.6521 56.0857 25.5806C55.8532 25.5836 55.3882 25.4483 55.3882 24.8832C55.3882 24.1768 56.0231 23.7834 57.2123 23.9264ZM71.3821 23.3895H69.0793C69.1272 22.9646 69.4288 22.1148 70.2512 22.1148C71.0737 22.1148 71.3478 22.9646 71.3821 23.3895ZM76.4811 23.0708C76.3818 22.807 76.0247 22.2793 75.3914 22.2793C74.5998 22.2793 74.0961 22.9475 74.0961 24.0064C74.0961 25.0652 74.7952 25.5073 75.3914 25.5073C75.9877 25.5073 76.4811 24.7363 76.4811 24.5821V23.0708Z" fill="#212524"/>
<path fill-rule="evenodd" clip-rule="evenodd" d="M57.7262 28.7979H59.1349V32.6584H59.3388L60.7475 31.0417H62.0821L60.3768 32.9001L62.3046 35.7109H60.97L59.6169 33.6172L59.1349 34.1362V35.3772L59.3388 35.7109H58.0228V29.1869L57.7262 28.7979ZM42.0779 29.1869H44.8944C45.4483 29.2663 46.5563 29.7144 46.5563 30.8717C46.5508 31.2295 46.3366 31.9958 45.5244 32.1988C45.9598 32.3258 46.8306 32.8514 46.8306 33.938C46.8306 35.2964 45.5155 35.8159 44.7974 35.8159H42.2885V29.6295L42.0779 29.1869ZM47.8055 31.3925L48.1778 32.1537C48.2081 32.0572 48.335 31.8426 48.5998 31.7566C48.9307 31.649 50.3869 31.4256 50.3869 32.6584C49.4106 32.5718 47.458 32.8224 47.458 34.5183C47.458 36.3072 49.9401 35.9118 50.3869 35.2151V35.7109H51.7521C51.6445 35.637 51.4294 35.4146 51.4294 35.1163V32.7825C51.4294 32.3275 51.3136 30.8717 49.5347 30.8717C49.201 30.866 48.3879 30.9623 47.8055 31.3925ZM53.5001 31.0417H52.3323L52.5733 31.3925V35.7109H53.6726V32.9001C53.6726 32.5536 53.982 31.7566 54.8161 31.7566C55.4834 31.7566 55.6749 32.4406 55.6873 32.7825V35.7109H57.0589L56.7438 35.2151V33.0797C56.7438 32.2213 56.5399 30.8717 55.3537 30.8717C54.4046 30.8717 53.8955 31.4616 53.7596 31.7566H53.5001V31.0417ZM43.4013 29.976V31.9075H44.3739C44.624 31.9075 45.4577 31.7545 45.4577 31.0042C45.4577 30.2539 44.8602 29.976 44.3739 29.976H43.4013ZM43.4013 35.02V32.7551H44.3739C44.8602 32.7551 45.6383 33.1858 45.6383 33.9361C45.6383 34.6863 44.624 35.02 44.3739 35.02H43.4013ZM49.15 35.0933C50.2087 35.1649 50.3422 34.0204 50.2766 33.4392C49.0874 33.2961 48.4526 33.6895 48.4526 34.3959C48.4526 34.961 48.9175 35.0963 49.15 35.0933Z" fill="#212524"/>
</svg>
