<svg width="101" height="56" viewBox="0 0 101 56" fill="none" xmlns="http://www.w3.org/2000/svg">
<rect x="0.133545" y="0.083374" width="100.5" height="55.8332" rx="12.9758" fill="white"/>
<path fill-rule="evenodd" clip-rule="evenodd" d="M30.6098 24.0062H21.4398V33.1762H30.6098V24.0062ZM17.7924 20.3588V36.8237H34.2572V20.3588H17.7924Z" fill="url(#paint0_linear_107_2331)"/>
<path fill-rule="evenodd" clip-rule="evenodd" d="M64.7608 23.1722H66.1249V19.176H69.1605V23.1722H71.4084V25.958H69.1605V29.7429C69.1605 30.4729 69.4679 31.0685 70.0443 31.0685C70.5054 31.0685 71.0177 30.9917 71.2163 30.9532V33.6814C70.5861 33.7736 69.5192 33.7967 69.0645 33.7967C66.6206 33.7967 66.0865 31.3631 66.1249 30.1463V25.958H64.7608V23.1722ZM48.6113 26.1879L50.0637 24.191C49.625 23.7371 48.3163 22.8295 46.5917 22.8295C44.436 22.8295 42.4391 24.0094 42.4391 26.1879C42.4391 28.3554 44.2362 28.9055 45.3495 29.2462L45.3663 29.2514C45.6013 29.3233 45.848 29.3873 46.0909 29.4502L46.0909 29.4502C46.9974 29.6853 47.8517 29.9067 47.8517 30.4793C47.8517 31.2053 45.543 31.9603 43.4957 30.1163L41.6661 32.0039C42.1017 32.6428 43.6264 33.9206 46.24 33.9206C49.5071 33.9206 50.8429 32.0847 50.8429 30.668C50.8429 29.2514 50.3492 28.0399 47.9534 27.2558C47.5904 27.1445 46.754 26.8957 46.3126 26.7912C45.7608 26.6605 45.3199 26.2177 45.7096 25.7112C46.0992 25.2047 48.1957 25.703 48.6113 26.1879ZM59.804 24.4978C59.5863 23.9855 58.682 22.9608 56.8069 22.9608C54.4629 22.9608 51.5234 24.7092 51.5234 28.4748C51.5234 32.2405 54.4629 33.7967 56.7108 33.7967C58.5091 33.7967 59.5222 32.8233 59.804 32.3365V33.5661H62.8972V23.1722H59.804V24.4978ZM72.9262 23.1722H76.1155V29.2241C76.109 29.8389 76.469 31.0685 77.9599 31.0685C79.4507 31.0685 79.8107 29.8389 79.8043 29.2241V23.1722H82.9743V29.9158C82.9807 31.2478 81.9868 33.912 77.9599 33.912C72.9262 33.912 72.9262 29.9734 72.9262 29.2241V23.1722ZM57.3581 31.1091C58.8244 31.1091 60.0131 29.9204 60.0131 28.454C60.0131 26.9877 58.8244 25.799 57.3581 25.799C55.8918 25.799 54.7031 26.9877 54.7031 28.454C54.7031 29.9204 55.8918 31.1091 57.3581 31.1091Z" fill="#D9D9D9"/>
<path fill-rule="evenodd" clip-rule="evenodd" d="M64.7608 23.1722H66.1249V19.176H69.1605V23.1722H71.4084V25.958H69.1605V29.7429C69.1605 30.4729 69.4679 31.0685 70.0443 31.0685C70.5054 31.0685 71.0177 30.9917 71.2163 30.9532V33.6814C70.5861 33.7736 69.5192 33.7967 69.0645 33.7967C66.6206 33.7967 66.0865 31.3631 66.1249 30.1463V25.958H64.7608V23.1722ZM48.6113 26.1879L50.0637 24.191C49.625 23.7371 48.3163 22.8295 46.5917 22.8295C44.436 22.8295 42.4391 24.0094 42.4391 26.1879C42.4391 28.3554 44.2362 28.9055 45.3495 29.2462L45.3663 29.2514C45.6013 29.3233 45.848 29.3873 46.0909 29.4502L46.0909 29.4502C46.9974 29.6853 47.8517 29.9067 47.8517 30.4793C47.8517 31.2053 45.543 31.9603 43.4957 30.1163L41.6661 32.0039C42.1017 32.6428 43.6264 33.9206 46.24 33.9206C49.5071 33.9206 50.8429 32.0847 50.8429 30.668C50.8429 29.2514 50.3492 28.0399 47.9534 27.2558C47.5904 27.1445 46.754 26.8957 46.3126 26.7912C45.7608 26.6605 45.3199 26.2177 45.7096 25.7112C46.0992 25.2047 48.1957 25.703 48.6113 26.1879ZM59.804 24.4978C59.5863 23.9855 58.682 22.9608 56.8069 22.9608C54.4629 22.9608 51.5234 24.7092 51.5234 28.4748C51.5234 32.2405 54.4629 33.7967 56.7108 33.7967C58.5091 33.7967 59.5222 32.8233 59.804 32.3365V33.5661H62.8972V23.1722H59.804V24.4978ZM72.9262 23.1722H76.1155V29.2241C76.109 29.8389 76.469 31.0685 77.9599 31.0685C79.4507 31.0685 79.8107 29.8389 79.8043 29.2241V23.1722H82.9743V29.9158C82.9807 31.2478 81.9868 33.912 77.9599 33.912C72.9262 33.912 72.9262 29.9734 72.9262 29.2241V23.1722ZM57.3581 31.1091C58.8244 31.1091 60.0131 29.9204 60.0131 28.454C60.0131 26.9877 58.8244 25.799 57.3581 25.799C55.8918 25.799 54.7031 26.9877 54.7031 28.454C54.7031 29.9204 55.8918 31.1091 57.3581 31.1091Z" fill="url(#paint1_linear_107_2331)"/>
<defs>
<linearGradient id="paint0_linear_107_2331" x1="21.9942" y1="21.2741" x2="81.8421" y2="41.173" gradientUnits="userSpaceOnUse">
<stop stop-color="#5051A3"/>
<stop offset="1" stop-color="#793491"/>
</linearGradient>
<linearGradient id="paint1_linear_107_2331" x1="23.2047" y1="15.1991" x2="55.6569" y2="56.0525" gradientUnits="userSpaceOnUse">
<stop stop-color="#5051A3"/>
<stop offset="1" stop-color="#793491"/>
</linearGradient>
</defs>
</svg>
