<svg width="101" height="56" viewBox="0 0 101 56" fill="none" xmlns="http://www.w3.org/2000/svg">
<rect x="0.0527344" y="0.083374" width="100.5" height="55.8332" rx="12.9758" fill="white"/>
<path d="M55.3828 28.7771C55.3828 28.5506 55.5667 26.3624 57.9832 26.3624C59.5841 26.3624 60.1624 27.2683 60.4665 28.7771H55.3828ZM58.0667 24.0177C54.467 24.0177 52.2544 26.7421 52.2544 30.0028C52.2544 32.8205 53.8755 35.9479 58.0667 35.9479C61.8703 35.9479 62.9499 33.5165 63.391 32.1577H61.409C60.9511 32.1577 60.6203 32.3375 60.3094 32.7205C60.1791 32.8671 59.5139 33.6265 58.1804 33.6265C55.4764 33.6265 55.4363 31.4882 55.3828 30.7555H63.5916C63.8222 27.4682 62.0808 24.0177 58.0667 24.0177ZM65.5268 20.0576V32.8171C65.5502 34.9654 65.9479 35.7147 68.6351 35.7147L68.6318 22.5755C68.6117 20.4572 68.2006 20.0542 65.5268 20.0576ZM71.5597 20.0576V32.8171C71.5831 34.9654 71.9808 35.7147 74.668 35.7147L74.6647 22.5755C74.6413 20.4572 74.2335 20.0542 71.5597 20.0576ZM48.8352 31.3217C48.8352 31.3217 48.1233 31.295 47.8493 32.0444C47.4615 33.1069 46.7496 33.6231 45.543 33.6231C43.6613 33.6231 42.9461 31.8379 42.9461 30.0028C42.9461 28.2609 43.6814 26.3624 45.6099 26.3624C46.8131 26.3624 47.4515 26.8986 47.7222 27.5947C47.8693 27.9711 48.0899 28.3141 48.7818 28.3141H50.981C50.8139 25.3865 48.2871 24.0143 45.63 24.0143C41.7128 24.0143 39.8243 26.8453 39.8243 30.136C39.8243 33.8196 42.3912 35.9446 45.5631 35.9446C48.3406 35.9446 50.6067 34.5557 51.0445 31.3183L48.8352 31.3217Z" fill="#5C3887"/>
<path d="M25.9374 35.7124H29.3766V30.6698L31.3553 28.6715C31.3553 28.6715 33.2671 31.4992 34.5505 33.4276C35.8407 35.3493 36.4557 35.7091 38.7585 35.7091H40.4263L33.6949 26.2401L39.8314 20.0585H38.1502C36.5225 20.0585 35.4697 20.1185 34.1762 21.4807C32.8727 22.8396 29.3766 26.5466 29.3766 26.5466V23.0994C29.3733 20.8312 28.9822 20.0519 25.9374 20.0519V35.7124Z" fill="#5C3887"/>
</svg>
