<svg width="102" height="56" viewBox="0 0 102 56" fill="none" xmlns="http://www.w3.org/2000/svg">
<rect x="0.512451" y="0.083374" width="100.5" height="55.8332" rx="12.9758" fill="white"/>
<path d="M31.197 35.9447H31.644C32.1696 35.971 32.6963 35.9231 33.2085 35.8025C33.4792 35.7116 33.7224 35.5536 33.9156 35.3433C34.0963 35.1535 34.2239 34.9195 34.2854 34.6647C34.3231 34.5306 34.316 34.3879 34.2651 34.2583C34.2113 34.1481 34.1165 34.0635 34.0009 34.0226C33.7078 33.9562 33.4069 33.9316 33.1069 33.9495H32.0625L31.197 35.9447ZM29.539 39.8174H28.0883L31.0954 32.7629H33.94C34.3543 32.7369 34.7696 32.7978 35.1591 32.9417C35.2896 32.9979 35.4076 33.0798 35.506 33.1824C35.6044 33.285 35.6813 33.4063 35.732 33.539C35.8455 33.8578 35.8596 34.2035 35.7727 34.5306C35.6894 34.9 35.5423 35.2521 35.3379 35.5709C35.1539 35.8768 34.922 36.1512 34.6511 36.3836C34.4261 36.573 34.1741 36.7278 33.9034 36.8428C33.5864 36.961 33.2561 37.0401 32.92 37.0785C32.4918 37.1189 32.0618 37.1352 31.6318 37.1273H30.689L29.539 39.8174Z" fill="#0157A5"/>
<path d="M37.3565 37.0204C37.2986 37.2245 37.2843 37.4385 37.3144 37.6485C37.3445 37.8585 37.4184 38.0598 37.5312 38.2395C37.6517 38.4066 37.8136 38.5394 38.001 38.6249C38.1884 38.7104 38.3948 38.7456 38.5999 38.7272C39.0367 38.7103 39.4595 38.5693 39.819 38.3208C40.2833 38.0147 40.6768 37.6129 40.9731 37.1423C41.2966 36.6775 41.5308 36.1566 41.664 35.6062C41.7328 35.3888 41.7543 35.1592 41.7269 34.9328C41.6996 34.7064 41.6241 34.4885 41.5055 34.2937C41.3802 34.1366 41.2173 34.0137 41.0319 33.9363C40.8465 33.8589 40.6446 33.8294 40.4449 33.8507C40.0677 33.8641 39.6981 33.9598 39.3619 34.1311C39.0256 34.3024 38.7309 34.5451 38.4984 34.8423C37.9347 35.4582 37.5411 36.2103 37.3565 37.0245V37.0204ZM35.9098 37.0529C36.0157 36.5955 36.1753 36.1522 36.3852 35.7322C36.6647 35.136 37.0364 34.5874 37.4865 34.1067C37.9216 33.6583 38.4372 33.2958 39.0063 33.038C39.5785 32.7694 40.2029 32.6306 40.835 32.6316C41.1995 32.6023 41.5657 32.6608 41.903 32.8022C42.2403 32.9436 42.5387 33.1638 42.7733 33.4444C42.9881 33.7564 43.1296 34.1129 43.1873 34.4872C43.2449 34.8615 43.2174 35.2441 43.1066 35.6062C42.9262 36.3882 42.5858 37.1242 42.1069 37.7681C41.6432 38.4367 41.0349 38.9923 40.327 39.3936C39.6634 39.7617 38.9159 39.952 38.157 39.9463C37.6027 39.977 37.0542 39.8194 36.6006 39.4993C36.2381 39.2282 35.9879 38.8334 35.8976 38.3899C35.805 37.949 35.805 37.4938 35.8976 37.0529" fill="#0157A5"/>
<path d="M43.32 37.546L44.7138 37.4729C44.6277 37.7638 44.6391 38.0749 44.7463 38.3588C44.9034 38.608 45.2678 38.7326 45.8394 38.7326C46.2198 38.7572 46.5989 38.668 46.9285 38.4766C47.1542 38.338 47.3162 38.1161 47.3796 37.8589C47.4022 37.7647 47.3994 37.6662 47.3716 37.5734C47.3437 37.4806 47.2918 37.3969 47.2211 37.3307C46.9497 37.1184 46.6502 36.9448 46.3312 36.8146C45.9586 36.6461 45.6011 36.4463 45.2624 36.2172C45.0482 36.063 44.8876 35.8456 44.8032 35.5955C44.7138 35.3065 44.7067 34.9983 44.7829 34.7055C44.9141 34.1089 45.2597 33.5811 45.7541 33.2223C46.3395 32.8058 47.048 32.5982 47.7656 32.633C48.5946 32.633 49.1933 32.8267 49.5618 33.2141C49.748 33.422 49.882 33.6712 49.9527 33.9412C50.0234 34.2111 50.0287 34.494 49.9682 34.7665L48.5662 34.8274C48.5937 34.6917 48.5905 34.5515 48.5568 34.4172C48.523 34.2829 48.4596 34.1578 48.3711 34.0513C48.2525 33.9503 48.1147 33.8744 47.9659 33.8283C47.8171 33.7822 47.6605 33.7668 47.5056 33.7831C47.1905 33.7616 46.8762 33.8352 46.6034 33.9944C46.4135 34.1174 46.2793 34.31 46.2296 34.5308C46.205 34.6185 46.2037 34.7111 46.2258 34.7994C46.2478 34.8878 46.2926 34.9689 46.3555 35.0347C46.6347 35.2626 46.9454 35.4487 47.278 35.5873C47.7804 35.7856 48.2419 36.0749 48.6393 36.4407C48.7686 36.6174 48.8546 36.8219 48.8906 37.0378C48.9266 37.2538 48.9115 37.4751 48.8466 37.6842C48.6932 38.3328 48.3053 38.9016 47.7575 39.2812C47.1204 39.7379 46.3507 39.9722 45.5672 39.9477C45.0463 39.9661 44.5285 39.8617 44.0555 39.6429C43.8766 39.5628 43.7167 39.4457 43.5865 39.2993C43.4562 39.1529 43.3584 38.9805 43.2996 38.7936C43.1915 38.3848 43.1915 37.9548 43.2996 37.546" fill="#0157A5"/>
<path d="M51.4593 39.8166H50.0085L52.524 33.9446H50.4555L50.9513 32.7621H56.5064L56.0147 33.9446H53.9747L51.4593 39.8166Z" fill="#0157A5"/>
<path d="M54.7866 38.4824H56.156L55.5993 39.8153H54.2299L54.7866 38.4824Z" fill="#0157A5"/>
<path d="M56.5077 39.8166L59.527 32.7621H60.9777L59.6936 35.7611L63.611 32.7621H65.5534L61.7864 35.5295L63.1681 39.8166H61.5223L60.5226 36.456L58.8768 37.6629L57.9544 39.8166H56.5077Z" fill="#0157A5"/>
<path d="M65.5527 39.8166L66.0241 38.7032L71.1444 33.9446H67.8406L68.3485 32.7621H73.4363L72.9893 33.8512L67.8284 38.6463H68.5883H69.8643H71.5304L71.0265 39.8288L65.5527 39.8166Z" fill="#0157A5"/>
<path fill-rule="evenodd" clip-rule="evenodd" d="M72.1975 16.0499C68.6563 16.2817 65.115 16.5136 60.2468 16.7694C55.3785 17.0252 49.2633 17.3129 44.6428 17.201C41.0264 17.0989 37.4236 16.714 33.8672 16.0499C34.9811 17.1188 36.2962 17.9557 37.7362 18.512C40.4402 19.4041 43.2858 19.7889 46.1297 19.6471C50.713 19.4789 55.2812 19.0224 59.8071 18.2802C64.3636 17.6167 68.2406 16.8333 72.1975 16.0499Z" fill="#0157A5"/>
<path fill-rule="evenodd" clip-rule="evenodd" d="M71.2946 18.6249C66.0826 19.5202 60.9026 20.4155 57.3214 21.0231C53.7402 21.6306 51.8776 21.8225 50.031 21.9584C48.3253 22.0833 46.6127 22.0833 44.907 21.9584C43.6368 21.8308 42.3764 21.6198 41.1339 21.3268C42.6678 22.0648 44.2755 22.6382 45.9302 23.0375C48.3541 23.559 50.8294 23.803 53.3085 23.765C55.8479 23.6753 58.3804 23.4458 60.8946 23.0775L65.1074 22.5579C64.496 23.3579 64.0355 24.2627 63.7484 25.2278C63.5457 26.1853 63.6065 27.1799 63.9243 28.1056C64.1806 28.7645 64.5855 29.3553 65.1074 29.8323C65.4343 28.3427 65.8917 26.8849 66.4743 25.4756C67.1315 24.063 67.9353 22.7233 68.8724 21.4787C69.6193 20.4769 70.4199 19.5162 71.2706 18.601" fill="#0157A5"/>
</svg>
