<svg width="102" height="56" viewBox="0 0 102 56" fill="none" xmlns="http://www.w3.org/2000/svg">
<rect x="0.987793" y="0.0834351" width="100.5" height="55.8332" rx="12.9758" fill="white"/>
<path d="M21.9006 19.6635V16.0401H30.8652C33.789 16.0401 36.1592 18.4103 36.1592 21.3341C36.1592 24.2579 33.789 26.6281 30.8652 26.6281H29.2609C27.483 26.6281 26.0418 28.0694 26.0418 29.8473V29.9222H36.1592V33.5456H21.9006V27.8972C21.9006 25.1431 24.1332 22.9105 26.8873 22.9105H30.5828C31.4795 22.9105 32.2063 22.1837 32.2063 21.287C32.2063 20.3904 31.4795 19.6635 30.5828 19.6635H21.9006Z" fill="#F3A31A"/>
<path d="M72.8312 23.4885L68.5401 16.1138H77.187L72.8312 23.4885Z" fill="#F3A31A"/>
<path d="M40.0487 30.3126V19.3447H42.6049C44.2099 19.5429 47.42 20.9736 47.42 25.1111C47.42 29.2485 44.2099 30.3027 42.6049 30.3126H40.0487Z" fill="#201B17"/>
<path d="M58.1677 16.1615H44.3535C47.0256 16.477 52.1038 18.7468 52.1038 25.302C52.1038 31.8571 45.2016 33.6339 42.283 33.7029H51.1867L58.1677 16.1615Z" fill="#201B17"/>
<path d="M56.3634 29.6799L54.8843 33.6734H65.1784L63.6698 29.6799H56.3634Z" fill="#201B17"/>
<path d="M59.9722 19.6817L57.3099 26.6923H62.6049L59.9722 19.6817Z" fill="#201B17"/>
<path d="M69.0831 33.6734L62.0724 16.1615H64.6755L71.0354 26.3373V33.6734H69.0831Z" fill="#201B17"/>
<path d="M80.6787 16.339L74.6442 26.3373V33.6734H80.6787V16.339Z" fill="#201B17"/>
<path fill-rule="evenodd" clip-rule="evenodd" d="M39.9839 36.8497H40.3376V39.5841H42.4627V39.9379H39.9839V36.8497ZM23.0687 37.2747H21.6996V36.921H24.7915V37.2747H23.4224V39.919H23.0687V37.2747ZM31.0918 36.921H33.4353V37.2747H31.4455V38.2526H33.4353V38.6063H31.4455V39.5841H33.4353V39.9379H31.0918V36.921ZM48.8985 36.9211H51.2419V37.2748H49.2522V38.2526H51.2419V38.6063H49.2522V39.5842H51.2419V39.9379H48.8985V36.9211ZM57.5553 37.8054C57.5553 37.317 57.9512 36.9211 58.4395 36.9211H60.0261C60.5145 36.9211 60.9104 37.317 60.9104 37.8054V38.0123H60.5567V37.8054C60.5567 37.5123 60.3191 37.2748 60.0261 37.2748H58.4395C58.1465 37.2748 57.909 37.5123 57.909 37.8054V39.0536C57.909 39.3466 58.1465 39.5842 58.4395 39.5842H60.0626C60.3355 39.5842 60.5567 39.363 60.5567 39.0902H60.9104C60.9104 39.5584 60.5308 39.9379 60.0626 39.9379H58.4395C57.9512 39.9379 57.5553 39.542 57.5553 39.0536V37.8054ZM67.2228 37.8054C67.2228 37.317 67.6187 36.9211 68.107 36.9211H69.5609C70.0493 36.9211 70.4452 37.317 70.4452 37.8054V39.0536C70.4452 39.542 70.0493 39.9379 69.5609 39.9379H68.107C67.6187 39.9379 67.2228 39.542 67.2228 39.0536V37.8054ZM68.107 37.2748C67.814 37.2748 67.5765 37.5123 67.5765 37.8054V39.0536C67.5765 39.3466 67.814 39.5842 68.107 39.5842H69.5609C69.854 39.5842 70.0915 39.3466 70.0915 39.0536V37.8054C70.0915 37.5123 69.854 37.2748 69.5609 37.2748H68.107ZM76.8571 36.9211H77.4458L78.8289 39.0833L80.2896 36.9211H80.776V39.9596H80.4223V37.3566L78.8208 39.7271L77.2522 37.2748H77.2108V39.9596H76.8571V36.9211Z" fill="black"/>
</svg>
