<svg width="101" height="56" viewBox="0 0 101 56" fill="none" xmlns="http://www.w3.org/2000/svg">
<rect x="0.44751" y="0.0834351" width="100.5" height="55.8332" rx="12.9758" fill="white"/>
<path fill-rule="evenodd" clip-rule="evenodd" d="M35.3141 14.3836C35.471 14.3111 35.6513 14.3087 35.8101 14.3769L50.7316 20.7837L65.5274 14.3776C65.6872 14.3085 65.8689 14.3109 66.0268 14.3843L71.4451 16.9044C71.6602 17.0045 71.7977 17.2201 71.7977 17.4573V41.063C71.7977 41.3997 71.5247 41.6727 71.188 41.6727H30.1092C29.7725 41.6727 29.4995 41.3997 29.4995 41.063V17.4573C29.4995 17.2195 29.6378 17.0033 29.8537 16.9037L35.3141 14.3836ZM50.1229 21.8494L36.1793 15.8625V19.426L50.1229 25.4749V21.8494ZM51.3423 25.4719V21.8481L65.1599 15.8655V19.4284L51.3423 25.4719ZM65.1599 20.7593V28.5462H66.3793V20.226L70.5783 18.3894V39.7105L66.3793 35.9998V33.2505H65.1599V35.665H36.1793V33.2505H34.9599V35.9984L30.7189 39.7174V18.3864L34.9599 20.2262V28.3361H36.1793V20.7552L50.49 26.9634C50.6453 27.0308 50.8218 27.0305 50.9769 26.9626L65.1599 20.7593ZM34.9599 18.897V15.8901L31.6015 17.4401L34.9599 18.897ZM31.7293 40.4533H69.5773L65.5388 36.8844H35.7991L31.7293 40.4533ZM69.7055 17.4402L66.3793 18.895V15.8932L69.7055 17.4402Z" fill="#2CBDAF"/>
<path d="M21.899 33.3322H23.0452V30.5004L24.2852 32.5341H24.4372L25.7759 30.5004V33.3322H26.8715V28.2586H25.7759L24.36 30.5004L23.0452 28.2586H21.899V33.3322Z" fill="black"/>
<path d="M36.9699 28.2586H33.2932V33.3322H36.9699V32.2085H34.4284V31.3359H36.9699V30.2345H34.4284V29.4297H36.9699V28.2586Z" fill="black"/>
<path d="M58.0739 30.819C58.0739 32.2332 56.9275 33.3795 55.5134 33.3795C54.0993 33.3795 52.9529 32.2332 52.9529 30.819C52.9529 29.4049 54.0993 28.2585 55.5134 28.2585C56.9275 28.2585 58.0739 29.4049 58.0739 30.819ZM54.1496 30.819C54.1496 31.5722 54.7602 32.1828 55.5134 32.1828C56.2665 32.1828 56.8771 31.5722 56.8771 30.819C56.8771 30.0659 56.2665 29.4553 55.5134 29.4553C54.7602 29.4553 54.1496 30.0659 54.1496 30.819Z" fill="black"/>
<path d="M79.4956 30.819C79.4956 32.2332 78.3492 33.3795 76.9351 33.3795C75.521 33.3795 74.3746 32.2332 74.3746 30.819C74.3746 29.4049 75.521 28.2585 76.9351 28.2585C78.3492 28.2585 79.4956 29.4049 79.4956 30.819ZM75.5714 30.819C75.5714 31.5722 76.182 32.1828 76.9351 32.1828C77.6883 32.1828 78.2989 31.5722 78.2989 30.819C78.2989 30.0659 77.6883 29.4553 76.9351 29.4553C76.182 29.4553 75.5714 30.0659 75.5714 30.819Z" fill="black"/>
<path fill-rule="evenodd" clip-rule="evenodd" d="M45.6478 28.3522C46.2372 28.5161 46.7484 28.8857 47.0889 29.394L46.1976 29.9911C45.9998 29.6958 45.7027 29.481 45.3603 29.3858C45.0178 29.2905 44.6525 29.321 44.3306 29.4718C44.0087 29.6226 43.7514 29.8836 43.6054 30.2077C43.4593 30.5318 43.4341 30.8974 43.5343 31.2385C43.6345 31.5795 43.8535 31.8734 44.1517 32.0669C44.4499 32.2605 44.8075 32.3408 45.1598 32.2935C45.5121 32.2461 45.8358 32.0742 46.0723 31.8088C46.1526 31.7187 46.221 31.6199 46.2766 31.5147H44.9615V30.5237L47.5212 30.5236V30.8642L47.5207 30.8666L47.5217 30.8666C47.5103 31.4783 47.2803 32.0657 46.8733 32.5225C46.4662 32.9793 45.9091 33.2752 45.3027 33.3567C44.6964 33.4382 44.0809 33.2999 43.5677 32.9668C43.0545 32.6338 42.6775 32.1279 42.505 31.5409C42.3325 30.954 42.3759 30.3246 42.6273 29.7668C42.8787 29.2091 43.3216 28.7598 43.8756 28.5003C44.4297 28.2408 45.0583 28.1882 45.6478 28.3522Z" fill="black"/>
<path fill-rule="evenodd" clip-rule="evenodd" d="M66.7519 28.3522C67.3413 28.5161 67.8526 28.8857 68.1931 29.394L67.3017 29.9911C67.1039 29.6958 66.8069 29.481 66.4644 29.3858C66.1219 29.2905 65.7567 29.321 65.4348 29.4718C65.1128 29.6226 64.8556 29.8836 64.7095 30.2077C64.5634 30.5318 64.5382 30.8974 64.6384 31.2385C64.7386 31.5795 64.9577 31.8734 65.2558 32.0669C65.554 32.2605 65.9116 32.3408 66.2639 32.2935C66.6162 32.2461 66.9399 32.0742 67.1764 31.8088C67.2567 31.7187 67.3251 31.6199 67.3807 31.5148H66.066V30.5238L68.6258 30.5237V30.8643L68.6252 30.8666L68.6258 30.8666C68.6144 31.4783 68.3844 32.0657 67.9774 32.5225C67.5704 32.9793 67.0132 33.2752 66.4069 33.3567C65.8005 33.4382 65.185 33.2999 64.6718 32.9668C64.1586 32.6338 63.7816 32.1279 63.6091 31.5409C63.4366 30.954 63.48 30.3246 63.7314 29.7668C63.9829 29.2091 64.4257 28.7598 64.9797 28.5003C65.5338 28.2408 66.1624 28.1882 66.7519 28.3522Z" fill="black"/>
</svg>
