<svg width="102" height="56" viewBox="0 0 102 56" fill="none" xmlns="http://www.w3.org/2000/svg">
<rect x="0.906982" y="0.0834351" width="100.5" height="55.8332" rx="12.9758" fill="white"/>
<path fill-rule="evenodd" clip-rule="evenodd" d="M33.3465 30.2871C33.3465 31.0945 34.001 31.7489 34.8083 31.7489C35.6841 31.7852 36.4587 31.1935 36.6579 30.3452C36.8787 29.4048 36.9711 28.592 36.9356 27.4725C36.8337 24.2652 33.9794 18.156 27.042 18.156C23.4104 18.156 17.2163 21.0612 17.2163 27.7949C17.2333 31.1663 19.0491 37.4339 27.042 37.9091C28.1112 37.9261 30.6804 37.6376 32.4046 36.3479L34.0507 38.2485C33.1173 38.9782 30.4089 40.4376 27.042 40.4376C22.8335 40.4376 14.5647 37.0247 14.7558 27.7949C14.9369 19.0456 22.5132 15.5627 27.042 15.5627C31.1938 15.5627 38.7136 18.156 39.426 27.4725C39.6019 29.7471 38.9511 34.2963 34.9405 34.2963C34.0183 34.2804 32.185 33.8664 31.5605 32.3996C30.421 33.5615 28.8319 34.2826 27.0742 34.2826C23.6072 34.2826 20.7967 31.4775 20.7967 28.0172C20.7967 24.557 23.6072 21.7519 27.0742 21.7519C30.5411 21.7519 33.3516 24.557 33.3516 28.0172C33.3516 28.7737 33.3465 29.5305 33.3465 30.2871ZM27.0742 31.615C25.0833 31.615 23.4695 30.0042 23.4695 28.0172C23.4695 26.0302 25.0833 24.4195 27.0742 24.4195C29.065 24.4195 30.6789 26.0302 30.6789 28.0172C30.6789 30.0042 29.065 31.615 27.0742 31.615Z" fill="#EC9201"/>
<path d="M46.3026 33.8482V22.5548H48.6352V23.317C49.5959 22.4671 50.9139 22.2392 51.4528 22.2315C53.3558 22.2315 54.6937 23.4478 55.1248 24.056C56.3063 22.5969 58.2191 22.2317 59.0278 22.2315C63.0556 22.2315 64.0163 25.6495 63.9932 27.3585V33.8482H61.6606V27.3585C61.6606 25.1599 59.9054 24.564 59.0278 24.541C56.7738 24.541 56.2719 26.4193 56.3027 27.3585V33.8482H53.9932V27.3585C53.9932 25.1968 52.2996 24.5794 51.4528 24.541C49.2541 24.541 48.6583 26.1268 48.6352 26.9197V33.8482H46.3026Z" fill="#005CFF"/>
<path d="M80.2357 33.8482V22.5548H82.6651V33.8482H80.2357Z" fill="#005CFF"/>
<path d="M85.244 33.8482V17.9065H87.5613V33.8482H85.244Z" fill="#005CFF"/>
<path d="M81.4913 17.4905C82.3846 17.4905 83.1088 18.2275 83.1088 19.1208C83.1088 20.0142 82.3846 20.7512 81.4913 20.7512C80.5979 20.7512 79.8738 20.0142 79.8738 19.1208C79.8738 18.2275 80.598 17.4905 81.4913 17.4905Z" fill="#005CFF"/>
<path fill-rule="evenodd" clip-rule="evenodd" d="M77.8684 28.1681V33.8483H75.4967V32.9344C74.4951 33.6926 73.2471 34.1424 71.8941 34.1424C68.5946 34.1424 65.9198 31.4676 65.9198 28.1681C65.9198 24.8686 68.5946 22.1938 71.8941 22.1938C73.2471 22.1938 74.4951 22.6436 75.4967 23.4018V22.5057H77.8684V28.1681ZM71.8941 31.7615C69.9095 31.7615 68.3007 30.1527 68.3007 28.1681C68.3007 26.1835 69.9095 24.5747 71.8941 24.5747C73.8787 24.5747 75.4875 26.1835 75.4875 28.1681C75.4875 30.1527 73.8787 31.7615 71.8941 31.7615Z" fill="#005CFF"/>
</svg>
